<svg width="210" height="290" viewBox="0 0 210 290" fill="none" xmlns="http://www.w3.org/2000/svg">
<g clip-path="url(#clip0_112_140)">
<g filter="url(#filter0_d_112_140)">
<path d="M176.839 279.062V215.12C176.548 211.774 176.379 208.415 175.813 205.094C174.926 199.899 174.262 194.649 172.395 189.678C170.427 184.436 167.349 179.96 163.155 176.206C156.748 170.471 149.196 166.707 141.419 163.307C138.239 161.917 134.978 160.728 131.69 159.62C131.084 159.416 130.411 158.915 129.788 159.643C129.519 166.479 125.841 170.923 119.875 173.752C117.817 174.728 115.662 175.384 113.395 175.669C112.494 175.782 112.018 176.261 112.051 177.254C112.148 180.166 111.992 183.081 112.167 185.997C112.284 187.929 112.241 189.876 112.1 191.822C111.95 193.895 112.121 195.98 112.181 198.061C112.269 201.112 112.206 204.166 112.074 207.22C111.909 211.058 112.203 214.898 112.208 218.739C112.214 222.858 111.914 226.972 112.062 230.338C112.088 227.961 112.05 224.831 112.164 221.699C112.27 218.742 112.177 215.778 112.07 212.818C111.919 208.654 112.286 204.49 112.173 200.326C112.059 196.163 112.175 192.004 112.156 187.843C112.138 184.374 112.057 180.904 112.059 177.434C112.059 175.96 112.206 175.894 113.7 175.627C118.102 174.837 122.18 173.311 125.341 169.98C127.952 167.229 129.77 164.094 129.668 160.134C129.663 159.945 129.713 159.768 129.799 159.602C128.359 157.199 127.589 154.488 126.302 152.016C126.115 151.655 125.869 151.288 125.344 151.435C124.911 152.02 124.764 152.717 124.791 153.398C124.973 157.956 122.299 160.406 118.47 161.968C117.238 162.471 115.977 162.939 114.681 163.275C112.293 163.894 110.678 165.288 110.099 167.753C109.811 169.77 110.323 171.71 110.676 173.662C111.002 175.463 111.023 175.44 109.254 175.531C108.2 175.586 107.117 175.576 106.183 176.21C105.318 177.349 105.412 178.715 105.405 180.004C105.364 188.34 105.384 196.675 105.384 205.011C105.384 214.041 105.384 223.071 105.384 232.103C105.384 214.744 105.384 197.383 105.384 180.023C105.384 179.423 105.428 178.834 105.557 178.236C105.924 176.529 105.508 175.963 103.778 175.67C101.351 175.258 98.9767 174.623 96.792 173.503C92.3581 171.227 89.2957 167.743 87.9282 162.882C87.8292 162.531 87.8398 162.157 87.8015 161.809C88.4192 165.253 90.0138 168.17 92.568 170.566C95.608 173.417 99.3515 174.803 103.341 175.603C104.286 175.793 105.194 176.149 106.163 176.222C107.256 174.281 107.163 172.097 107.452 169.991C107.452 169.762 107.434 169.532 107.426 169.301C107.326 165.992 106.187 164.424 103.005 163.438C100.97 162.807 98.9859 162.075 97.0983 161.084C94.4028 159.666 92.77 157.553 92.6868 154.409C92.6657 153.622 92.605 152.838 92.1667 152.144C91.2691 151.709 91.0249 152.492 90.7319 152.995C90.0283 154.198 89.495 155.499 89.1558 156.842C88.7281 158.538 87.7038 159.456 86.1066 160.102C79.6188 162.725 73.2629 165.631 67.3163 169.362C62.1102 172.629 57.2829 176.327 53.5302 181.279C50.5351 185.23 48.7214 189.693 47.6443 194.495C46.3058 200.469 45.5851 206.534 44.9171 212.61C44.3905 217.392 43.972 222.182 43.6117 226.977C43.4876 228.637 43.3939 230.302 43.3147 231.962C42.9028 240.657 42.8051 249.365 43.0586 258.06C43.1932 262.717 43.1127 267.409 43.8875 272.037C44.1383 273.224 44.3456 274.422 44.7416 275.575C46.2345 279.799 49.0237 282.659 53.5698 283.237C56.7893 283.647 60.0457 283.429 63.1966 282.452C66.7883 281.062 70.5741 280.321 74.2437 279.185C78.8439 277.761 83.4362 276.315 87.9982 274.779C94.5335 272.578 101.058 270.342 107.555 268.03C113.922 265.762 120.407 263.841 126.724 261.426C128.587 260.713 129.341 259.484 129.38 257.654C129.425 255.618 129.415 253.578 129.384 251.54C128.817 246.972 127.462 242.617 125.794 238.348C125.348 237.017 124.603 235.847 123.801 234.714C123.31 234.022 123.34 233.592 124.219 233.279C130.415 231.075 136.656 229.021 143.292 228.722C145.212 228.637 147.169 228.862 149.051 229.419C149.518 229.558 149.995 229.858 150.514 229.557C151.019 227.068 151.302 224.545 151.634 222.031C153.003 211.713 153.848 201.315 156.456 191.189C156.722 190.158 157.052 189.145 157.289 188.106C156.227 193.399 155.441 198.733 154.92 204.106C154.859 204.731 154.544 205.712 155.231 205.83C156.058 205.971 156.087 204.906 156.217 204.276C156.699 201.953 157.537 199.748 158.022 198.405C156.555 205.335 154.047 213.025 154.313 221.148C154.507 221.197 154.699 221.246 154.893 221.295C156.435 218.339 157.025 215.019 158.201 211.924C159.4 208.768 160.247 205.493 161.549 202.053C159.845 206.806 158.702 211.421 157.203 215.922C155.784 220.187 154.555 224.497 153.534 228.874C153.208 230.273 152.734 231.629 152.998 233.094C153.956 236.843 154.365 240.646 154.163 244.511C153.911 246.552 153.91 246.533 151.984 246.734C146.605 247.292 141.301 248.331 135.983 249.268C135.44 249.365 134.89 249.478 134.454 249.866C133.525 251.32 132.947 252.95 132.391 254.551C131.525 257.043 130.335 259.419 129.701 261.989C129.314 263.557 128.385 264.497 126.878 265.139C123.381 266.626 119.783 267.846 116.295 269.35C115.79 269.567 115.077 269.68 115.104 270.337C115.134 271.027 115.841 271.253 116.419 271.401C119.515 272.197 122.596 273.047 125.678 273.892C132.913 275.874 140.111 277.996 147.383 279.83C150.836 280.702 154.298 281.578 157.795 282.278C158.797 282.478 159.748 282.829 160.736 283.067C161.852 282.825 162.941 283.149 164.045 283.215C167.044 283.392 170.07 283.739 172.959 282.563C174.654 281.872 176.193 280.954 176.833 279.069L176.839 279.062Z" fill="#374247"/>
<path d="M160.757 283.501C160.808 283.578 160.877 283.647 160.907 283.731C161.162 284.425 160.622 285.488 161.251 285.813C162.054 286.23 163.113 286.202 164.067 286.277C167.965 286.582 171.866 286.85 175.764 287.147C176.126 287.175 176.479 287.315 176.837 287.403V279.063C174.717 281.949 171.759 283.017 168.297 283.05C166.074 283.071 163.876 282.869 161.685 282.527C161.266 282.462 160.736 282.176 160.667 282.956C160.542 283.163 160.568 283.346 160.756 283.501H160.757Z" fill="#FBFCFC"/>
<path d="M176.839 133.384C175.334 134.939 175.334 135.728 176.839 136.998V133.384Z" fill="#C8D9DC"/>
<path d="M78.976 132.002C80.2577 133.6 80.721 135.611 81.6556 137.389C82.8766 139.71 84.2388 141.875 86.1647 143.665C85.8558 144.295 86.401 144.571 86.7033 144.935C88.2714 146.827 90.2633 148.214 92.2684 149.585C96.6852 152.251 101.342 154.048 106.617 154.096C110.508 154.13 114.27 153.707 117.866 152.183C120.606 151.023 123.167 149.578 125.144 147.277C127.569 145.309 129.547 142.948 131.277 140.361C132.874 137.975 134.064 135.389 135.06 132.713C135.293 132.087 135.619 131.965 136.177 131.975C137.335 131.999 138.495 131.949 139.649 132.012C142.45 132.165 144.401 130.729 146.418 128.963C148.379 127.247 149.216 125.062 150.153 122.838C150.159 121.96 150.112 121.079 150.178 120.205C150.511 115.807 148.763 112.451 145.139 110.018C143.9 109.349 142.636 109.584 141.387 109.952C140.755 110.138 140.458 110.664 140.307 111.285C140.091 112.184 139.992 113.104 139.801 114.007C139.666 114.641 139.544 115.279 139.269 115.867C139.075 116.282 138.855 116.789 138.277 116.613C137.798 116.468 137.769 115.961 137.846 115.554C138.18 113.772 137.861 111.952 138.191 110.173C138.342 109.36 138.26 108.56 137.624 107.988C134.192 104.907 133.623 100.761 133.301 96.5186C133.266 96.0592 133.269 95.5959 133.165 95.1405C133.066 94.7815 133.01 94.4158 133.001 94.0449C132.981 93.2582 132.544 92.9981 131.799 92.8199C121.347 90.3264 110.713 90.1443 100.07 90.4835C94.0702 90.6749 88.0827 91.3125 82.1585 92.3817C81.5209 92.7711 81.4681 93.4403 81.3929 94.0739C81.1342 96.2731 80.4478 98.3521 79.1647 100.126C76.922 103.227 75.9716 106.59 76.3254 110.406C76.4996 112.283 76.369 114.191 76.3452 116.084C76.3412 116.434 76.4389 116.942 75.998 117.033C75.4991 117.136 75.2892 116.638 75.1809 116.255C74.7018 114.563 74.5487 112.809 74.2543 111.081C73.9137 109.078 72.4644 108.521 70.7206 109.686C69.1723 110.026 68.0384 111.231 67.1078 112.224C66.494 112.879 65.6677 113.935 65.4947 115.323C65.2519 117.269 65.0644 119.192 65.0644 121.149C65.0644 122.43 65.3799 123.812 65.834 124.816C66.259 125.753 67.0629 126.786 67.7652 127.729C69.0891 129.504 70.7391 130.855 72.8049 131.644C74.3454 132.233 75.9716 132.12 77.582 132.004C77.2058 130.777 77.4619 129.532 77.5226 128.3C77.6414 125.886 77.0092 123.572 76.633 121.228C76.5181 120.515 76.5551 119.79 76.3808 119.182C76.3624 118.905 76.6488 119.136 76.4759 119.07C76.8508 123.468 77.6797 127.778 78.9733 131.999L78.976 132.002Z" fill="#FBC1A0"/>
<path d="M125.728 56.3468C120.622 54.7866 115.38 54.1794 110.061 54.0606C103.384 53.9128 96.7749 54.3827 90.291 56.0868C90.1194 56.1317 89.9623 56.232 89.7986 56.3072C88.8205 57.7645 88.9683 59.4885 88.6661 61.1041C87.9123 65.1407 87.3725 69.2129 86.6676 73.2588C85.7238 78.6708 84.9344 84.1066 84.12 89.5397C84.0474 90.0268 83.8903 90.5521 84.3206 90.9825C84.941 91.3389 85.5891 91.1646 86.2201 91.0564C95.5776 89.4486 105.024 89.376 114.46 89.6796C119.255 89.8341 124.066 90.2815 128.794 91.2676C129.469 91.4088 130.151 91.6161 130.838 91.3112C131.441 90.8584 131.242 90.2419 131.16 89.6585C129.899 80.6996 128.489 71.7645 127.057 62.8307C126.779 61.0989 126.433 59.3776 126.192 57.6405C126.128 57.1719 125.959 56.7508 125.729 56.3468H125.728Z" fill="#364247"/>
<path d="M125.728 56.3468C125.958 59.6983 126.721 62.9706 127.192 66.2878C127.751 70.228 128.419 74.1524 129.031 78.086C129.677 82.2467 130.312 86.41 130.949 90.5733C130.976 90.7541 130.959 90.9415 130.964 91.1263C131.719 91.9065 132.929 92.3579 132.789 93.7782C132.74 94.2719 132.705 94.7867 132.851 95.283C132.929 97.4611 133.154 99.614 133.625 101.751C134.183 104.275 135.336 106.434 137.246 108.168C137.749 108.624 137.89 109.105 137.839 109.757C137.681 111.741 137.554 113.729 137.459 115.718C137.43 116.328 137.242 117.101 138.152 117.302C139.057 117.503 139.378 116.841 139.63 116.169C140.173 114.731 140.431 113.214 140.61 111.707C140.747 110.538 141.27 110.082 142.363 110.074C143.288 110.067 144.213 110.041 145.137 110.022C145.57 107.563 146.067 105.113 146.016 102.596C145.991 101.346 145.863 100.101 145.81 98.8563C145.741 97.1746 144.963 95.5906 145.711 93.7584C146.27 92.3935 145.47 90.762 145.112 89.2836C143.042 80.7432 140.938 72.212 138.532 63.756C138.141 62.3832 137.39 61.3761 136.185 60.6342C132.931 58.6331 129.471 57.1468 125.728 56.3455V56.3468Z" fill="#1C2B2F"/>
<path d="M84.2691 90.857C84.9119 86.8205 85.5495 82.7839 86.2002 78.7486C86.6768 75.7997 87.2695 72.8654 87.6338 69.9033C88.0707 66.3459 89.0171 62.8729 89.2825 59.2904C89.3564 58.2885 89.6217 57.3012 89.7986 56.3085C85.733 57.1837 82.0132 58.8522 78.5944 61.2031C77.7694 61.7707 77.2559 62.5535 76.9774 63.5316C75.9926 66.9887 74.9723 70.4366 73.9651 73.887C72.9078 78.2338 71.8439 82.5793 70.7984 86.9287C70.3879 88.6341 69.9853 90.3422 69.6447 92.0622C69.4692 92.9506 69.2487 93.8878 70.0619 94.656C70.4249 94.9992 70.2005 95.4348 70.1252 95.8361C69.3147 100.121 69.4929 104.386 70.3998 108.634C70.4763 108.993 70.6136 109.337 70.7219 109.69C73.6562 109.373 73.6378 109.375 73.9994 112.19C74.1578 113.424 74.3796 114.651 74.6198 115.872C74.7254 116.41 74.872 116.958 75.2812 117.375C75.5861 117.685 75.9359 117.93 76.386 117.788C76.8348 117.645 76.8071 117.208 76.8044 116.853C76.786 114.497 76.8586 112.133 76.6883 109.787C76.4507 106.511 77.2097 103.615 79.162 100.943C80.973 98.4655 81.6713 95.5272 82.1003 92.5295C82.4369 91.4695 83.7794 91.719 84.2704 90.8597L84.2691 90.857Z" fill="#1D2A2F"/>
<path d="M63.0857 282.134V283.971C62.8336 284.918 63.1543 285.9 62.8983 286.846C62.893 287.03 62.8877 287.212 62.8824 287.395C63.6164 287.824 64.3239 287.46 65.0235 287.296C70.8407 285.933 76.5511 284.174 82.2271 282.342C89.4409 280.015 96.7023 277.824 103.789 275.103C105.713 274.366 107.764 273.657 109.844 273.683C113.157 273.724 116.506 273.935 119.662 275.062C124.587 276.821 129.516 278.6 134.535 280.038C142.937 282.444 151.372 284.754 159.876 286.785C160.35 286.899 160.975 287.163 160.761 286.201C160.761 285.3 160.758 284.4 160.757 283.5C160.728 283.318 160.697 283.136 160.668 282.955C159.997 281.974 158.859 282.121 157.916 281.907C151.088 280.358 144.299 278.666 137.555 276.784C130.725 274.876 123.922 272.87 117.022 271.22C116.933 271.199 116.846 271.161 116.764 271.121C116.253 270.874 115.338 270.955 115.367 270.262C115.39 269.738 116.27 269.809 116.768 269.61C119.926 268.349 123.01 266.828 126.261 265.89C129.659 264.909 129.936 262.058 130.951 259.527C132.02 256.862 132.778 254.076 134.119 251.518C134.349 251.078 134.42 250.555 134.564 250.071C132.523 249.795 130.732 250.475 129.035 251.512C129.029 253.55 129.04 255.59 129.015 257.628C128.991 259.617 128.431 260.293 126.629 261.011C119.73 263.763 112.582 265.793 105.607 268.332C98.6915 270.849 91.6651 273.06 84.7021 275.445C78.8664 277.444 72.9541 279.191 67.014 280.843C65.6795 281.214 64.3226 281.476 63.087 282.134H63.0857Z" fill="#1B282C"/>
<path d="M59.5137 218.164C57.6393 218.813 56.2969 219.915 56.1979 222.071C59.8305 223.797 63.4077 225.622 66.6721 227.998C67.109 228.316 67.6212 228.543 67.9948 229.055C64.7277 227.103 61.5333 225.172 58.1832 223.512C57.3727 223.111 56.5767 222.863 55.6791 222.988C53.2846 223.574 52.7131 224.407 52.8833 227.064C56.9318 228.799 60.7308 230.965 64.2446 233.626C64.3304 233.691 64.3885 233.742 64.4571 233.93C61.3221 231.753 58.001 230.112 54.8435 228.19C54.14 227.763 53.4311 227.262 52.5203 227.57C51.3323 228.015 50.7726 228.891 50.634 230.137C50.4928 231.402 51.3468 231.886 52.2233 232.393C54.8897 233.647 57.3938 235.165 59.7949 236.875C60.5908 237.441 61.2746 238.11 61.994 238.75C62.6725 240.303 64.0598 241.051 65.4947 241.645C65.9831 241.847 66.189 242.47 66.7962 242.39C71.828 241.026 76.9154 239.898 82.0343 238.918C83.3939 238.658 84.7522 238.381 86.1198 238.167C87.0596 238.021 87.482 237.833 86.9316 236.723C82.8514 228.487 77.9964 220.944 69.4956 216.535C69.2501 216.111 68.8752 215.945 68.3974 215.978C67.9235 215.81 67.4364 215.672 66.977 215.471C64.5284 214.399 62.324 214.787 60.3374 216.547C60.0206 217.421 60.744 217.574 61.2588 217.774C64.8201 219.17 68.0066 221.208 71.0915 223.428C71.6208 223.809 72.133 224.197 72.5237 224.817C69.2026 222.555 65.9118 220.359 62.3544 218.612C61.4937 218.19 60.5922 217.456 59.5137 218.162V218.164Z" fill="#FCC19F"/>
<path d="M154.548 244.59C154.805 240.616 154.48 236.706 153.27 232.892C152.89 231.291 152.281 229.881 150.425 229.528C146.461 227.941 142.378 228.086 138.304 228.858C133.219 229.823 128.285 231.348 123.426 233.133C122.623 233.427 122.648 233.692 123.081 234.278C124.042 235.58 124.816 236.996 125.478 238.472C125.968 238.869 126.181 239.43 126.381 239.998C126.86 241.348 127.464 242.638 128.125 243.91C129.263 246.102 131.055 247.109 133.48 247.212C135.522 247.298 137.535 247.022 139.551 246.83C143.131 246.491 146.709 246.148 150.289 245.809C151.443 245.699 152.561 245.411 153.697 245.215C154.08 245.149 154.394 244.976 154.544 244.589L154.548 244.59Z" fill="#FBC0A0"/>
<path d="M92.3213 149.213C92.1774 150.216 92.4612 151.245 92.1444 152.237C92.2249 153.295 92.2724 154.355 92.3925 155.407C92.8453 159.405 95.8404 161.04 99.0361 162.446C100.045 162.89 101.106 163.228 102.163 163.546C105.524 164.561 107.068 165.44 107.124 169.764C107.749 169.342 108.321 168.872 109.192 169.012C110.297 169.189 110.188 168.219 110.393 167.572C111.23 165.161 113.06 164.029 115.429 163.397C117.419 162.865 119.333 162.096 121.128 161.01C123.669 159.472 125.005 157.319 125.126 154.361C125.166 153.399 125.337 152.442 125.448 151.484C124.797 150.121 125.324 148.673 125.145 147.277C123.958 147.832 123.085 148.821 122.019 149.548C116.591 153.252 110.503 154.224 104.156 153.606C99.8889 153.19 95.9671 151.49 92.3226 149.213H92.3213Z" fill="#E3866E"/>
<path d="M150.427 229.528C151.76 230.324 152.618 231.521 153.27 232.892C153.719 228.787 154.87 224.853 156.107 220.929C157.419 216.764 158.597 212.559 159.855 208.377C160.506 206.218 161.2 204.07 161.884 201.921C162.004 201.543 162.28 201.179 161.76 200.718C159.147 207.42 157.128 214.258 154.689 220.952C154.622 212.506 157.139 204.498 158.727 196.32C157.06 199.241 156.229 202.452 155.181 205.637C155.272 204.498 155.318 203.353 155.464 202.221C156.083 197.385 156.786 192.563 157.731 187.778C157.79 187.481 158.102 187.072 157.704 186.932C157.21 186.759 157.157 187.286 157.057 187.624C155.734 192.086 154.748 196.616 153.998 201.216C153.465 204.484 153.107 207.774 152.598 211.042C152.181 213.719 151.88 216.415 151.542 219.104C151.225 221.613 150.989 224.134 150.589 226.63C150.433 227.606 150.483 228.563 150.425 229.528H150.427Z" fill="#1C272C"/>
<path d="M154.548 244.59C152.201 245.304 149.763 245.432 147.347 245.692C143.735 246.082 140.124 246.498 136.501 246.739C133.909 246.912 131.108 247.373 129.222 244.877C128.142 243.448 127.359 241.812 126.805 240.088C126.577 239.379 126.355 238.655 125.481 238.473C127.084 242.707 128.422 247.011 129.033 251.512C130.876 251.032 132.72 250.551 134.563 250.071C138.931 248.994 143.38 248.351 147.821 247.686C149.682 247.407 151.547 247.065 153.448 247.142C153.918 247.16 154.249 247.052 154.299 246.495C154.356 245.857 154.463 245.225 154.549 244.59H154.548Z" fill="#E99177"/>
<path d="M66.7963 242.391C66.3976 241.651 65.6373 241.401 64.9575 241.049C63.8104 240.456 62.7359 239.793 62.2673 238.49C61.0965 238.273 60.253 237.457 59.3066 236.842C57.3688 235.582 55.5445 234.142 53.4497 233.135C53.0141 232.927 52.5811 232.535 52.0412 232.912C50.2619 234.429 50.1774 235.608 51.8459 237.141C53.8549 238.988 56.2138 240.373 58.4156 241.966C59.3435 242.638 60.3612 243.191 61.1638 244.029C61.4001 244.515 61.841 244.7 62.303 244.556C63.8421 244.078 65.4208 243.671 66.7105 242.619C66.7501 242.548 66.7778 242.472 66.795 242.391H66.7963Z" fill="#F4A385"/>
<path d="M129.849 159.52C129.693 159.653 129.268 159.291 129.318 159.8C129.693 163.525 127.901 166.445 125.657 169.094C122.495 172.827 118.225 174.589 113.501 175.356C112.309 175.549 111.731 175.881 111.736 177.325C111.8 195.204 111.778 213.083 111.791 230.961C111.791 231.525 111.568 232.157 112.046 232.649C112.376 232.659 112.329 232.413 112.325 232.267C112.153 226.761 112.868 221.26 112.553 215.765C112.375 212.666 112.183 209.56 112.412 206.488C112.624 203.617 112.649 200.755 112.554 197.902C112.488 195.922 112.144 193.92 112.41 191.964C112.677 190.016 112.75 188.06 112.546 186.159C112.24 183.288 112.478 180.429 112.326 177.571C112.268 176.479 112.636 176.071 113.766 175.888C119.314 174.984 124.239 172.795 127.518 168.022C129.226 165.535 130.481 162.739 129.849 159.522H129.846L129.849 159.52Z" fill="#1A252A"/>
<path d="M106.242 176.174C104.905 175.114 103.195 175.254 101.675 174.904C98.1939 174.103 95.1843 172.513 92.6076 170.145C90.8111 168.492 89.5729 166.384 88.707 164.075C88.3229 163.053 88.0311 162.009 87.7632 160.71C87.2339 162.688 87.8912 164.317 88.5842 165.75C90.5431 169.801 93.7019 172.654 97.9338 174.32C100.005 175.135 102.127 175.741 104.303 176.128C105.34 176.312 105.544 176.898 105.336 177.683C105.046 178.785 105.116 179.887 105.116 180.992C105.108 198.22 105.109 215.448 105.12 232.676C105.12 233.151 104.939 233.678 105.41 234.224C105.822 233.639 105.652 233.035 105.652 232.491C105.666 215.078 105.66 197.665 105.688 180.252C105.69 178.884 105.783 177.497 106.242 176.177H106.239L106.242 176.174Z" fill="#1B262A"/>
<path d="M68.3987 215.979C68.7221 216.247 69.0719 216.467 69.497 216.536C69.8916 214.767 68.9465 213.253 68.4541 211.692C67.1539 207.567 65.6439 203.509 64.2618 199.41C63.1015 195.969 61.6799 192.639 60.1078 189.369C59.9718 189.085 59.8464 188.754 59.2431 188.897C59.7368 190.363 60.2173 191.818 60.7176 193.266C61.7063 196.129 62.7346 198.987 63.8143 201.806C65.2677 205.6 66.292 209.519 67.6516 213.332C67.9591 214.193 68.1519 215.095 68.3961 215.978L68.3987 215.979Z" fill="#1F2A2F"/>
<path d="M110.392 167.574C110.137 168.475 109.543 168.982 108.638 168.662C107.476 168.252 107.286 168.937 107.124 169.768C106.829 171.904 106.535 174.04 106.242 176.176H106.245C107.578 176.115 108.916 175.966 110.244 176.022C111.394 176.071 111.506 175.712 111.271 174.679C110.742 172.348 110.29 169.99 110.392 167.574Z" fill="#F7BC97"/>
<path d="M59.5138 218.164C60.5843 218.058 61.4977 218.529 62.394 218.998C65.7495 220.75 68.9637 222.731 72.0314 224.951C72.3838 225.206 72.7046 225.589 73.3408 225.602C73.1191 224.675 72.533 224.04 71.8717 223.561C68.503 221.119 65.0485 218.811 61.1004 217.377C60.6635 217.219 60.3388 217.059 60.3374 216.548C59.7976 216.952 59.6801 217.571 59.5138 218.164Z" fill="#D48068"/>
<path d="M55.6791 222.99C59.0636 223.996 61.9914 225.907 64.9891 227.678C65.9765 228.262 66.9414 228.885 67.9275 229.471C68.1822 229.623 68.4621 229.893 68.8462 229.479C68.5003 228.835 67.909 228.431 67.3163 228.011C64.2275 225.825 60.9737 223.927 57.5337 222.345C57.0995 222.146 56.6678 222.041 56.1979 222.072C56.1042 222.423 56.1345 222.844 55.6791 222.991V222.99Z" fill="#D67E66"/>
<path d="M66.7118 242.621C65.2901 243.159 63.8619 243.682 62.4495 244.244C61.9505 244.442 61.5756 244.201 61.1651 244.031C60.9262 245.989 59.1508 246.506 57.8809 247.47C56.4843 248.532 55.1115 249.609 53.9169 250.897C53.7546 251.073 53.6569 251.273 53.7638 251.615C54.7961 251.207 55.5155 250.372 56.3616 249.745C59.6378 247.321 63.058 245.131 66.6458 243.198C66.9177 243.051 67.6041 242.916 66.7131 242.621H66.7118Z" fill="#212B2E"/>
<path d="M52.5203 227.571C56.1781 229.039 59.4055 231.286 62.7847 233.257C63.5622 233.709 64.2618 234.303 65.3561 234.649C64.8914 233.296 63.8275 232.8 62.988 232.235C60.4325 230.515 57.7687 228.96 55.002 227.587C54.3222 227.251 53.6476 227.006 52.8833 227.066C52.7619 227.235 52.6405 227.402 52.5203 227.571Z" fill="#CF7D63"/>
<path d="M40.0688 271.262C40.5229 272.408 40.9981 273.547 41.4231 274.705C41.5855 275.146 41.8072 275.437 42.2943 275.443C43.2091 275.452 44.1252 275.451 45.0399 275.455C44.7667 274.342 44.4934 273.229 44.2189 272.116C42.788 272.061 41.4007 271.801 40.0688 271.264V271.262Z" fill="#D7DEDD"/>
<path d="M52.0413 232.912C54.7393 233.855 56.9055 235.683 59.2472 237.221C60.0154 237.725 60.7955 238.213 61.5928 238.671C61.8093 238.795 62.2053 239.139 62.2673 238.49C59.8887 236.182 56.9952 234.616 54.1889 232.931C53.6121 232.585 52.9573 232.277 52.2208 232.393C52.1601 232.566 52.1007 232.739 52.0399 232.911L52.0413 232.912Z" fill="#CD8061"/>
<path d="M160.761 286.202C160.655 286.362 160.741 286.698 160.358 286.599C155.639 285.38 150.867 284.333 146.217 282.893C142.879 281.859 139.493 281.006 136.135 280.073C132.226 278.987 128.45 277.531 124.569 276.379C121.418 275.444 118.418 273.917 115.099 273.67C112.235 273.456 109.426 272.957 106.466 273.937C101.016 275.74 95.6172 277.697 90.1471 279.437C85.4201 280.939 80.6628 282.344 75.9333 283.839C71.6287 285.199 67.2846 286.4 62.8824 287.398C62.5999 290.587 62.5999 290.571 65.7494 290.573C84.1807 290.583 102.613 290.612 121.044 290.617C133.872 290.62 146.7 290.578 159.527 290.61C160.744 290.612 161.196 290.319 160.997 289.085C160.844 288.137 161.125 287.143 160.759 286.205L160.761 286.202Z" fill="#364146"/>
<path d="M62.8983 286.846C63.3498 285.913 63.1161 284.936 63.0844 283.971C62.9947 284.648 62.9049 285.326 62.8152 286.003C62.8429 286.284 62.8706 286.565 62.8983 286.846Z" fill="#364146"/>
<path d="M78.9759 132.002C79.2677 130.934 78.7885 129.948 78.5337 128.98C77.7365 125.951 77.2005 122.88 76.7398 119.789C76.6752 119.353 76.493 118.936 76.2805 118.528C76.0521 120.489 76.4732 122.399 76.86 124.265C77.2863 126.323 77.1161 128.347 76.9656 130.371C76.9101 131.128 77.0606 131.579 77.5833 132.007C78.0467 132.006 78.5113 132.003 78.9746 132.002H78.9759Z" fill="#E3A182"/>
<path d="M84.2691 90.8571C83.8797 90.964 83.4943 91.1263 83.0983 91.1646C82.2244 91.2491 81.9063 91.6873 82.099 92.5269C82.4686 92.7724 82.8593 92.8278 83.291 92.7077C86.3257 91.8629 89.4792 91.8167 92.5759 91.4524C98.6875 90.733 104.843 90.7726 110.991 90.8478C117.552 90.927 124.036 91.6213 130.457 93.0021C131.861 93.303 132.997 93.5222 132.851 95.283C132.868 94.8263 132.847 94.3656 132.91 93.9155C133.128 92.3698 132.744 91.2676 130.964 91.125C128.504 90.7633 126.047 90.3766 123.583 90.0426C116.885 89.1384 110.148 89.079 103.405 89.1437C97.3477 89.2018 91.3457 89.8156 85.374 90.8003C85.0123 90.8597 84.6374 90.8399 84.2691 90.8571Z" fill="#E4907A"/>
<path d="M86.1542 104.777C89.6614 104.542 93.1845 104.41 96.532 103.152C97.4085 102.822 98.2349 102.423 98.7893 101.618C99.2183 100.996 99.3146 100.336 98.9978 99.6496C98.6718 98.9447 98.0646 98.6279 97.3148 98.6477C96.8119 98.6609 96.2931 98.7137 95.8153 98.8616C91.9741 100.046 88.1421 101.261 84.2507 102.279C83.4653 102.484 82.2324 102.6 82.3697 103.735C82.5149 104.945 83.7372 104.711 84.6269 104.771C85.1338 104.807 85.646 104.778 86.1555 104.778L86.1542 104.777Z" fill="#1C292E"/>
<path d="M127.395 104.766C128.087 104.766 128.778 104.778 129.47 104.763C130.101 104.75 130.549 104.415 130.656 103.808C130.764 103.19 130.262 102.911 129.79 102.708C128.046 101.957 126.186 101.582 124.363 101.091C122.004 100.456 119.663 99.7684 117.372 98.917C116.756 98.6873 116.129 98.591 115.474 98.6319C114.635 98.686 114.088 99.1691 113.818 99.8991C113.563 100.584 113.696 101.265 114.24 101.817C114.87 102.457 115.634 102.864 116.483 103.133C120.035 104.256 123.715 104.534 127.396 104.767L127.395 104.766Z" fill="#1A2A2F"/>
<path d="M105.061 110.443C104.477 112.763 103.846 115.042 103.207 117.322C102.715 119.077 101.841 120.64 101.044 122.239C99.4637 125.408 101.06 128.554 104.585 128.905C105.933 129.04 107.396 129.26 108.444 127.977C108.665 127.705 109.069 127.491 108.833 127.046C108.656 126.714 108.313 126.704 107.982 126.707C107.335 126.712 106.688 126.72 106.041 126.726C104.93 126.735 103.825 126.53 103.298 125.474C102.801 124.475 103.277 123.424 103.882 122.622C104.996 121.143 105.644 119.503 106.003 117.723C106.507 115.22 106.3 112.792 105.058 110.442L105.061 110.443Z" fill="#E0886F"/>
<path d="M68.973 119.413C68.738 120.524 69.1749 121.377 70.4448 121.688C71.1747 121.868 71.1219 122.418 71.1998 122.982C71.4308 124.66 71.8545 126.273 73.4913 127.176C74.7216 127.854 75.6495 127.375 75.8951 125.972C76.0944 124.831 75.771 123.703 74.8839 123.09C72.4195 121.389 72.6412 119.099 73.1943 116.674C73.3356 116.053 73.7778 115.213 73.1389 114.904C72.4036 114.549 71.4348 114.529 70.6362 115.119C69.2198 116.166 68.9017 117.643 68.973 119.413Z" fill="#E2816C"/>
<path d="M142.949 114.752C141.431 114.748 141.493 114.872 141.763 116.163C142.237 118.42 142.859 120.764 140.563 122.594C139.712 123.272 139.015 124.192 139.036 125.419C139.049 126.166 139.348 126.797 140.008 127.137C140.648 127.467 141.283 127.214 141.815 126.806C142.92 125.957 143.662 124.872 143.751 123.44C143.808 122.544 144.021 121.816 145.045 121.589C145.528 121.482 145.894 121.092 145.919 120.614C146.018 118.807 145.91 117.022 144.791 115.48C144.303 114.807 143.572 114.71 142.95 114.752H142.949Z" fill="#E3846E"/>
<path d="M114.844 139.689C114.949 139.015 114.558 138.641 114.247 138.266C110.499 133.757 102.955 133.774 99.2077 138.295C99.0044 138.541 98.8487 138.827 98.6731 139.095C98.5107 139.344 98.3985 139.627 98.6982 139.819C99.0189 140.025 99.1773 139.726 99.3423 139.509C102.983 134.72 109.98 135.015 113.969 139.23C114.179 139.452 114.368 139.758 114.844 139.688V139.689Z" fill="#252518"/>
</g>
<path d="M30.17 30.0399C37.4014 29.7201 42.7206 35.3225 43.8332 41.3424C44.6843 45.9501 43.7302 50.0943 41.0144 53.7141C39.7215 55.4366 38.3026 57.0465 36.9569 58.7229C36.286 59.5591 35.8686 60.4671 35.893 61.6732C35.9567 64.8376 33.9754 66.8352 31.1295 66.613C28.8798 66.4381 27.2143 63.7765 27.446 61.0038C27.7672 57.1482 29.7377 54.3334 32.0415 51.6786C33.1745 50.3721 34.386 49.1226 35.1666 47.5045C37.2808 43.1258 34.5947 38.3094 30.0724 38.2932C26.9242 38.2823 22.864 40.845 23.1351 45.8905C23.2828 48.647 21.6525 50.4656 19.2619 50.5944C17.1627 50.7069 15.2993 48.7893 15.0594 46.2686C14.4414 39.7785 18.7144 33.0173 24.7342 30.9425C26.5624 30.3123 28.4096 29.8597 30.1713 30.0399H30.17Z" fill="#394D66"/>
<path d="M195.653 109.744C195.615 113.689 193.916 116.545 190.814 118.462C189.809 119.084 188.782 119.667 187.75 120.233C186.615 120.854 185.666 121.609 185.042 122.914C184.288 124.49 182.761 124.968 181.386 124.295C179.774 123.504 179.241 121.761 180.049 119.861C180.789 118.118 181.936 116.758 183.453 115.808C184.641 115.065 185.876 114.411 187.095 113.726C187.749 113.359 188.376 112.945 188.881 112.356C189.9 111.167 190.28 109.768 189.748 108.22C189.138 106.445 187.942 105.306 186.217 104.971C183.738 104.49 182.005 105.568 180.993 108.126C180.341 109.775 179.018 110.433 177.501 109.863C176.058 109.321 175.168 107.637 175.609 106.035C176.58 102.501 178.864 100.447 182.05 99.4943C186.669 98.1126 191.059 99.6965 193.939 103.765C195.03 105.304 195.643 107.452 195.654 109.744H195.653Z" fill="#3A4D66"/>
<path d="M177.434 130.454C177.443 128.389 178.71 126.92 180.485 126.917C182.289 126.914 183.663 128.464 183.636 130.471C183.609 132.427 182.193 133.904 180.352 133.895C178.681 133.888 177.424 132.405 177.434 130.453V130.454Z" fill="#3A4D64"/>
<path d="M40.6254 74.7686C40.6227 77.4235 38.6278 79.5674 36.1152 79.6175C33.7423 79.6636 31.7338 77.4655 31.7406 74.8269C31.7474 71.9565 33.6108 69.8898 36.2237 69.8573C38.6752 69.8262 40.6281 72.0053 40.6254 74.7686Z" fill="#394C64"/>
<path d="M47.1427 101.721C48.6971 100.898 50.1919 100.637 51.6745 100.345C52.4782 100.188 53.2439 100.453 53.3306 101.451C53.4078 102.339 52.7695 102.55 52.0228 102.62C50.9942 102.714 49.971 102.941 48.9573 103.174C48.2065 103.346 47.8637 103.658 48.6158 104.445C49.2988 105.162 49.887 106.003 50.4386 106.85C50.8207 107.439 51.0877 108.109 50.3681 108.723C49.6254 109.356 49.1714 108.839 48.7405 108.276C48.1564 107.513 47.5804 106.739 47.0438 105.934C46.5179 105.144 46.1155 105.264 45.698 106.033C45.1912 106.97 44.6762 107.902 44.1301 108.811C43.7818 109.392 43.363 109.871 42.6353 109.398C41.9428 108.948 42.0214 108.29 42.2897 107.665C42.7911 106.499 43.5121 105.48 44.2778 104.511C44.7697 103.888 44.5719 103.597 43.9471 103.486C43.1367 103.341 42.3154 103.275 41.505 103.13C40.7841 103 40.0766 102.709 40.1634 101.733C40.2487 100.779 40.9616 100.793 41.6514 100.82C42.4401 100.851 43.2099 101.023 43.9159 101.351C45.034 101.87 45.4134 101.366 45.5395 100.225C45.6845 98.9117 45.8729 97.6052 46.0626 96.2988C46.1724 95.5426 46.5125 95.0588 47.2985 95.2689C48.0493 95.4694 48.2187 96.0915 48.0941 96.8043C47.8189 98.3723 47.4923 99.9294 47.1413 101.721H47.1427Z" fill="#354960"/>
<path d="M174.486 149.349C175.297 148.558 176.142 148.042 176.951 147.463C177.348 147.177 177.729 147.081 178.047 147.592C178.406 148.168 178.11 148.582 177.724 148.883C177.084 149.382 176.411 149.828 175.743 150.278C175.129 150.69 175.249 150.993 175.813 151.306C176.35 151.604 176.878 151.928 177.396 152.268C177.768 152.513 178.002 152.88 177.754 153.371C177.527 153.82 177.155 153.921 176.746 153.687C176.158 153.352 175.562 153.029 175.001 152.641C174.506 152.298 174.161 152.183 173.907 152.961C173.689 153.628 173.379 154.257 173.084 154.887C172.906 155.267 172.733 155.78 172.228 155.546C171.731 155.316 171.648 154.807 171.775 154.254C171.932 153.578 172.341 153.057 172.645 152.47C173.158 151.479 173.148 151.501 172.19 151.314C171.506 151.181 170.823 151.173 170.137 151.13C169.687 151.102 169.273 150.911 169.293 150.301C169.315 149.662 169.717 149.434 170.229 149.491C171.176 149.598 172.122 149.734 173.146 149.868C173.077 148.905 172.516 148.202 172.217 147.387C171.987 146.76 171.523 146.028 172.295 145.626C173.06 145.227 173.289 146.107 173.528 146.713C173.858 147.551 174.15 148.41 174.489 149.349H174.486Z" fill="#374960"/>
</g>
<defs>
<filter id="filter0_d_112_140" x="30.0687" y="54.035" width="146.77" height="236.583" filterUnits="userSpaceOnUse" color-interpolation-filters="sRGB">
<feFlood flood-opacity="0" result="BackgroundImageFix"/>
<feColorMatrix in="SourceAlpha" type="matrix" values="0 0 0 0 0 0 0 0 0 0 0 0 0 0 0 0 0 0 127 0" result="hardAlpha"/>
<feOffset dx="-10"/>
<feComposite in2="hardAlpha" operator="out"/>
<feColorMatrix type="matrix" values="0 0 0 0 0 0 0 0 0 0 0 0 0 0 0 0 0 0 0.05 0"/>
<feBlend mode="normal" in2="BackgroundImageFix" result="effect1_dropShadow_112_140"/>
<feBlend mode="normal" in="SourceGraphic" in2="effect1_dropShadow_112_140" result="shape"/>
</filter>
<clipPath id="clip0_112_140">
<rect width="210" height="290" fill="white"/>
</clipPath>
</defs>
</svg>
