<svg width="322" height="194" viewBox="0 0 322 194" fill="none" xmlns="http://www.w3.org/2000/svg">
<g clip-path="url(#clip0_55_2890)">
<path d="M67.314 0.010373C55.2256 -0.26617 43.0716 4.36939 43.0716 4.36939C36.9531 6.70272 30.1397 9.29877 25.3659 15.2652C18.4247 23.9383 19.3649 35.2593 19.918 41.962C21.6498 62.9551 23.6686 88.3348 26.5343 117.97C60.8326 109.795 95.1274 101.623 129.426 93.4474C115.336 36.5417 86.0602 0.439015 67.314 0.010373Z" fill="#9FA09F"/>
<path d="M24.4223 16.5338C24.9857 17.7264 25.8084 19.6242 26.5413 22.037C27.9966 26.842 28.1798 30.6997 28.242 31.8751C29.082 47.3546 32.003 62.6612 33.206 78.1165C33.9146 87.2355 35.0657 101.671 36.6697 120.493C33.4065 121.582 30.1467 122.668 26.8835 123.757C25.1413 103.559 23.4025 83.3605 21.6603 63.1625C20.9413 52.7955 20.3882 43.9911 19.8144 36.4933C19.6035 33.7521 19.2474 29.3032 20.9171 23.9348C21.9334 20.6612 23.3541 18.1585 24.4223 16.5304V16.5338Z" fill="#8C8C8C"/>
<path d="M0 123.739C0.082963 128.503 0.162469 133.266 0.245432 138.03C22.2168 154.391 66.2148 182.387 128.281 191.717C128.281 191.717 194.037 201.6 267.155 177.275C282.015 172.331 291.141 166.251 301.577 159.303C301.577 159.303 311.737 152.538 319.11 141.362C320.348 139.485 320.714 138.41 321.039 137.49C321.92 135.005 322.059 132.858 321.979 128.212C321.934 125.499 321.82 122.16 321.554 118.322C214.373 120.127 107.185 121.935 0 123.739Z" fill="#AF916D"/>
<path d="M0 123.739C79.1916 101.955 158.38 80.1664 237.571 58.3817C306.638 84.5323 322.28 104.319 321.557 118.319C319.774 153.011 215.742 187.562 124.202 174.589C67.8568 166.607 25.4662 141.922 0 123.739Z" fill="#D3B488"/>
<path d="M158.02 128.824C188.17 120.832 218.32 112.84 248.474 104.848C248.457 104.008 248.439 103.171 248.426 102.331C236.009 99.7733 223.595 97.2119 211.179 94.6538C183.231 101.391 155.282 108.128 127.334 114.866C127.393 115.522 127.452 116.183 127.507 116.84C137.677 120.836 147.85 124.832 158.02 128.828V128.824Z" fill="#707070"/>
<path d="M127.331 114.866C137.622 118.257 147.913 121.644 158.203 125.036C188.274 117.469 218.348 109.902 248.419 102.335C237.112 99.6109 225.808 96.8869 214.501 94.163C185.443 101.063 156.385 107.966 127.327 114.866H127.331Z" fill="#888988"/>
<path d="M255.965 96.3269C219.012 105.643 182.055 114.959 145.102 124.275C144.4 124.261 143.398 124.14 142.333 123.639C139.585 122.346 138.676 119.577 138.5 118.997C138.185 90.2326 137.871 61.4686 137.552 32.7082C137.577 28.2247 141.282 24.0247 145.835 23.323L256.418 6.27408C260.97 5.57235 264.641 8.63852 264.617 13.1185L264.244 86.9452C264.22 91.4286 260.514 95.6287 255.961 96.3304L255.965 96.3269Z" fill="#9FA09F"/>
<path d="M194.856 127.811C200.031 130.082 205.209 132.357 210.384 134.628C216.388 131.994 222.389 129.357 228.393 126.722C225.486 124.666 222.583 122.605 219.675 120.549C211.403 122.972 203.128 125.392 194.856 127.815V127.811Z" fill="#666666"/>
<path d="M194.372 81.3175C194.323 76.3847 194.272 71.4519 194.223 66.519C198.752 66.7299 203.283 66.9407 207.812 67.1516C207.774 71.1062 207.736 75.0607 207.701 79.0153C203.259 79.7827 198.817 80.5501 194.375 81.3175H194.372Z" fill="#666666"/>
<path d="M211.656 63.5635C205.845 64.5486 200.034 65.5338 194.223 66.519C199.609 89.2232 204.998 111.924 210.384 134.628C217.619 132.274 224.854 129.92 232.085 127.569C225.276 106.234 218.466 84.9022 211.656 63.5669V63.5635ZM211.175 94.6538C208.6 95.2069 205.831 92.4761 204.984 88.5526C204.141 84.6291 205.541 80.9995 208.116 80.4464C210.691 79.8933 213.46 82.6242 214.307 86.5477C215.151 90.4711 213.751 94.1007 211.175 94.6538Z" fill="#777777"/>
<path d="M142.143 28.3422C144.058 30.1225 143.816 33.3269 143.775 34.0494C143.536 38.3081 143.775 73.2114 144.145 121.786C143.522 121.886 142.192 122.004 140.923 121.275C139.015 120.182 138.033 117.641 138.579 114.956C138.261 87.398 137.947 59.8405 137.629 32.283C137.929 29.521 139.125 27.6681 140.418 27.5575C141.213 27.4884 141.887 28.0968 142.15 28.3388L142.143 28.3422Z" fill="#8C8C8C"/>
<path d="M133.166 126.401C139.074 128.838 144.522 135.396 142.959 139.917C141.179 145.064 130.452 147.121 123.345 143.187C118.475 140.491 113.957 134.234 115.768 129.789C117.783 124.839 126.947 123.84 133.163 126.404L133.166 126.401Z" fill="#9FA09F"/>
<path d="M118.139 136.153C120.5 138.22 122.249 136.944 125.343 139.008C127.666 140.557 127.144 141.587 129.488 142.814C131.928 144.093 134.369 143.958 135.399 143.834C136.291 143.726 137.926 143.512 139.613 142.337C141.158 141.262 141.963 139.927 142.33 139.212C142.61 138.617 142.89 138.026 143.166 137.432C143.578 139.616 143.153 140.999 142.669 141.86C139.875 146.844 128.382 146.665 121.758 142.171C120.867 141.566 117.845 139.461 116.235 135.676C115.464 133.868 115.135 131.953 115.363 131.866C115.626 131.766 116.055 134.327 118.139 136.153Z" fill="#8C8C8C"/>
<path d="M135.945 135.745C135.918 136.35 136.875 136.426 137.781 137.58C138.624 138.655 138.579 139.585 139.074 139.62C139.45 139.644 139.844 139.129 139.959 138.669C140.01 138.462 140.066 138.019 139.212 136.699C138.372 135.396 137.95 134.746 137.311 134.728C136.688 134.711 135.973 135.233 135.952 135.748L135.945 135.745Z" fill="#8C8C8C"/>
<path d="M133.228 132.941C134.345 133.37 136.92 134.531 138.887 137.273C140.183 139.084 140.702 140.864 140.926 141.963" stroke="#8C8C8C" stroke-width="0.345679" stroke-miterlimit="10"/>
<path d="M292.908 59.4361C292.528 60.162 292.158 60.8914 291.687 61.5689C291.224 62.4884 290.319 62.9723 289.589 63.6119C289.109 64.0336 288.756 64.6904 288.016 64.7802C287.536 64.9358 287.055 65.1086 286.578 64.7768C288.442 62.7027 290.46 60.8188 292.908 59.4395V59.4361Z" fill="#2B491D"/>
<path d="M315.18 72.7309C315.059 71.6765 314.758 70.6672 314.447 69.6578C314.136 68.6553 313.603 67.7946 312.85 67.0617C312.57 66.7886 312.235 66.5467 312.062 66.2148C312.172 66.0316 312.293 66.0316 312.404 66.004C313.341 65.7724 313.503 65.5407 313.396 64.5832C313.375 64.4104 313.337 64.2375 313.292 64.0682C312.625 61.5793 311.215 59.7679 308.681 58.9556C307.855 58.6928 307.15 58.2296 306.548 57.6005C306.14 57.1719 305.795 56.7017 305.438 56.2351C304.554 55.0909 303.434 54.2578 302.061 53.798C301.37 53.5664 300.661 53.404 299.904 53.5388C297.927 53.8914 296.541 54.9768 295.749 56.8193C295.5 57.3965 295.179 57.884 294.626 58.2296C294.031 58.5995 293.478 59.0316 292.908 59.4361C292.292 60.0479 291.864 60.7773 291.573 61.5896C291.297 64.4242 292.562 66.4983 294.774 68.1091C295.549 68.3235 296.347 68.0469 297.125 68.2405C299.676 68.8869 301.47 70.4183 302.517 72.8242C302.694 73.2286 302.811 73.6573 303.33 73.7472C304.312 74.2242 305.369 74.3936 306.434 74.5353C307.215 74.6425 307.513 74.2484 307.226 73.4914C307.143 73.277 307.018 73.0765 306.911 72.8726C306.617 72.3091 306.272 71.7664 306.099 71.1442C306.085 70.9921 306.064 70.8296 306.306 70.9541C306.98 71.6489 307.665 72.3368 308.325 73.042C309.984 74.8119 312.321 74.8983 314.347 74.1551C315.093 73.882 315.27 73.5398 315.176 72.7274L315.18 72.7309ZM303.482 72.1605C303.292 72.2573 303.064 72.1605 303.033 72.0188C302.766 70.6775 301.674 69.6198 301.684 68.1886C301.729 67.8326 301.653 67.4731 301.819 67.1412C301.902 66.9788 302.027 66.8578 302.224 66.8509C302.476 66.8405 302.462 67.0652 302.521 67.2138C302.562 67.321 302.594 67.442 302.59 67.5526C302.566 68.6588 302.912 69.6785 303.306 70.6914C303.444 71.044 303.534 71.4138 303.631 71.7803C303.669 71.9289 303.631 72.0775 303.478 72.1536L303.482 72.1605Z" fill="#3D622D"/>
<path d="M297.197 90.1185C296.869 91.6914 296.433 93.2435 296.216 94.8405C295.721 98.4667 294.874 102.027 294.162 105.615C293.9 106.936 293.412 108.198 292.973 109.473C292.5 110.842 291.532 111.53 290.17 111.844C287.805 112.391 285.406 112.494 282.997 112.432C281.856 112.401 280.705 112.463 279.578 112.204C279.381 112.159 279.188 112.086 278.994 112.028C278.631 111.689 278.545 111.215 278.403 110.773C276.823 105.954 275.523 101.063 274.718 96.0504C274.656 95.6597 274.452 95.2519 274.78 94.8785C275.478 94.5847 276.028 94.9719 276.574 95.2933C277.67 95.9328 277.933 95.8983 278.866 95.0099C279.633 94.277 280.297 93.4647 280.881 92.5832C281.123 92.2202 281.338 91.8193 281.829 91.7225C283.999 91.6533 286.17 91.6153 288.341 91.5116C290.014 91.4321 291.68 91.3388 293.347 91.1798C294.463 91.0726 295.559 90.8617 296.53 90.243C296.727 90.1151 296.955 90.0425 297.201 90.1289L297.197 90.1185Z" fill="#D79819"/>
<path d="M272.098 62.6785C271.731 63.0138 271.87 63.4943 271.814 63.8919C271.451 66.5398 270.065 68.5827 268.136 70.3146C267.542 70.8504 266.798 71.158 266.034 71.3862C264.261 71.9151 262.56 72.6272 260.905 73.4464C260.618 73.5882 260.317 73.7161 260.009 73.8059C259.318 74.0064 259.01 73.7506 259.034 73.0247C259.052 72.5407 259.259 72.1156 259.449 71.6869C259.923 70.6153 260.424 69.5541 260.763 68.4272C260.998 67.6425 261.212 66.844 261.143 66.0143C261.115 65.6825 261.164 65.2227 260.746 65.1467C260.372 65.0775 260.248 65.4993 260.11 65.7793C259.591 66.8405 259.38 67.9985 259.076 69.1289C258.862 69.9205 258.685 70.7225 258.395 71.4899C258.156 72.1294 257.835 72.7136 257.341 73.1975C256.542 73.9788 255.612 74.1551 254.589 73.7506C254.154 73.5812 253.739 73.3531 253.334 73.118C252.135 72.4232 250.876 71.884 249.535 71.5175C248.505 71.2375 248.267 70.9714 248.343 69.8963C248.464 68.1748 248.46 66.4464 248.678 64.7319C248.726 64.3516 248.823 63.9886 248.951 63.6291C249.47 62.1807 250.368 61.5101 251.896 61.4168C253.275 61.3304 254.655 61.3477 256.034 61.358C256.563 61.3615 257.068 61.2682 257.634 61.1817C257.469 60.8188 257.161 60.7807 256.902 60.6943C255.07 60.0963 253.196 59.8163 251.267 59.9684C250.914 59.9961 250.565 60.0237 250.213 60.041C250.033 60.0514 249.857 60.0203 249.76 59.837C249.649 59.6331 249.687 59.443 249.843 59.2736C249.864 59.2528 249.877 59.2252 249.898 59.2079C251.091 58.0775 252.194 56.8504 253.542 55.8963C255.215 54.7106 256.94 54.6138 258.751 55.5645C259.871 56.1521 260.898 56.8919 262 57.5037C262.274 57.6558 262.526 57.8701 262.878 57.8909C262.723 57.2998 262.592 57.1165 261.907 56.5393C260.58 55.4193 259.138 54.4686 257.624 53.6183C257.337 53.4558 256.826 53.3867 256.95 52.9407C257.074 52.5017 257.555 52.7126 257.866 52.7299C259.823 52.844 261.779 52.9822 263.736 53.1309C264.261 53.1723 264.783 53.2588 265.298 53.3659C266.729 53.6632 267.929 54.3407 268.745 55.5921C268.962 55.6751 269.076 55.8479 269.149 56.0588C269.211 56.2178 269.267 56.3803 269.312 56.5462C269.875 58.24 269.847 58.2538 268.015 58.6479C267.31 58.8 266.874 58.6514 266.491 58.0015C265.92 57.0301 265.039 56.3215 264.13 55.6647C264.963 56.2869 265.723 56.9886 266.359 57.8114C266.93 58.5511 266.861 58.8691 266.021 59.2045C264.956 59.6296 263.891 60.0514 262.854 60.5388C262.446 60.7289 262.052 60.7151 261.679 60.4765C260.628 59.799 259.432 59.4741 258.26 59.0904C259.18 59.4188 260.116 59.6988 260.994 60.1274C261.928 60.5837 261.955 60.9916 261.074 61.524C259.508 62.4642 258.018 63.5047 256.653 64.7146C256.214 65.1017 255.74 65.2815 255.121 65.2054C254.275 65.0983 253.421 65.1328 252.581 65.361C253.3 65.2158 254.029 65.1985 254.755 65.2607C255.436 65.3195 255.536 65.5615 255.108 66.0904C254.644 66.6607 254.043 67.1032 253.6 67.7704C254.071 67.1793 254.572 66.6953 255.087 66.2286C255.239 66.0904 255.419 65.9348 255.633 66.0074C255.913 66.1042 255.861 66.3842 255.875 66.6123C255.923 67.4765 255.823 68.3304 255.685 69.1358C255.92 68.1714 255.91 67.1447 255.868 66.118C255.847 65.6272 256.024 65.2677 256.376 64.96C257.845 63.6844 259.418 62.5575 261.095 61.5723C262.018 61.0296 262.329 61.1714 262.488 62.2361C262.685 63.5393 262.844 64.8528 262.768 65.8622C262.827 64.7388 262.699 63.3077 262.433 61.8938C262.291 61.1333 262.554 60.6667 263.279 60.3867C264.237 60.0168 265.174 59.5812 266.135 59.2217C266.94 58.921 267.165 58.9936 267.521 59.7714C268.226 61.3096 268.565 62.9343 268.586 64.6212C268.586 62.962 268.236 61.3719 267.58 59.844C267.241 59.0558 267.324 58.8899 268.143 58.6514C268.313 58.603 268.489 58.5753 268.651 58.5131C269.495 58.1778 270.179 58.2469 270.625 59.163C270.805 59.5294 271.126 59.8094 271.507 59.9995C271.583 60.0514 271.645 60.117 271.7 60.1896C271.921 60.5042 271.966 60.8672 271.987 61.237C271.966 61.721 272.343 62.1807 272.087 62.682L272.098 62.6785Z" fill="#3D622D"/>
<path d="M281.628 91.9126C280.785 93.0706 280.017 94.2874 278.942 95.2588C278.749 95.4351 278.558 95.6217 278.341 95.7669C277.888 96.0711 277.421 96.0988 276.948 95.7807C276.336 95.3728 275.714 94.9891 274.963 94.8854C274.275 94.9718 273.633 94.7817 273.003 94.5328C271.911 94.1042 271.451 93.5649 271.562 92.3965C271.662 91.3561 271.365 90.7062 270.39 90.3605C269.726 90.1254 269.066 89.8973 268.541 89.3891C267.099 87.996 267.186 86.1363 268.772 84.916C269.519 84.3388 270.383 83.962 271.202 83.5057C271.769 83.1911 272.333 82.8731 272.758 82.3753C273.18 81.881 273.069 81.5872 272.44 81.4869C271.811 81.3867 271.216 81.5526 270.639 81.7807C269.958 82.0504 269.291 82.3477 268.613 82.6277C266.643 83.4538 265.371 82.0642 265.716 80.1526C265.855 79.3852 266.131 78.6835 266.588 78.0681C268.192 75.8973 270.241 74.4593 273.017 74.2622C273.698 74.2138 274.358 74.3106 275.012 74.4835C275.205 74.5353 275.371 74.6459 275.586 74.5007C276.609 73.8232 277.781 73.5847 278.97 73.4015C279.537 73.3427 280.166 73.4706 280.556 72.8761C280.629 73.2148 280.384 73.602 280.719 73.8993C280.919 73.9096 281.072 73.9961 281.168 74.1758C281.179 74.3521 281.345 74.3763 281.448 74.4662C281.535 74.6183 281.638 74.76 281.763 74.8879C282.572 76.2844 282.188 77.4978 281.189 78.6178C281.099 78.9012 280.995 79.1812 280.795 79.4094C280.27 79.1605 280.079 79.5027 279.927 79.9072C279.378 80.0835 279.609 80.2978 279.9 80.5121C280.245 80.761 280.577 81.0375 281.03 81.0756C281.58 81.2519 282.119 81.4731 282.717 81.3314C282.831 81.4662 282.845 81.6183 282.786 81.7807C282.634 82.0988 282.931 82.2751 283.018 82.5205C283.719 83.5714 283.695 84.719 283.474 85.8909C283.512 86.2711 283.484 86.6306 283.17 86.9072C282.72 87.3185 282.254 87.6849 281.59 87.3704C280.899 86.9625 280.456 86.2711 279.824 85.7941C279.513 85.559 279.077 85.1131 278.766 85.4311C278.458 85.7457 278.939 86.157 279.153 86.482C279.364 86.8035 279.685 87.0351 280.014 87.2217C280.802 87.6746 281.521 88.2069 282.115 88.8983C282.389 89.0988 282.43 89.3891 282.43 89.6968C282.275 90.478 282.299 91.3249 281.618 91.9126H281.628Z" fill="#3D622D"/>
<path d="M270.394 90.364C270.604 90.3259 270.791 90.402 270.988 90.4642C271.797 90.7166 271.911 90.8825 271.807 91.7086C271.797 91.7951 271.783 91.8815 271.776 91.9679C271.659 93.5338 272.032 94.0593 273.55 94.4879C274.02 94.6193 274.521 94.6538 274.963 94.8889C274.801 95.003 274.766 95.1551 274.801 95.3486C275.696 100.133 276.681 104.893 278.275 109.508C278.558 110.327 278.87 111.153 278.994 112.024C278.144 111.927 277.338 111.668 276.547 111.357C275.575 110.977 275.026 110.189 274.628 109.283C274.165 108.229 273.944 107.109 273.698 105.989C272.585 100.931 271.731 95.8188 270.511 90.7822C270.477 90.6405 270.435 90.5022 270.394 90.3605V90.364Z" fill="#BC8415"/>
<path d="M281.628 91.9126C281.96 91.1936 282.04 90.3951 282.32 89.6622C282.724 89.8766 282.983 89.842 282.99 89.3027C282.994 88.8361 283.007 88.3694 282.911 87.9062C282.831 87.5259 282.797 87.1526 283.045 86.8138C283.222 86.5338 283.443 86.2746 283.45 85.9151H283.536C283.605 86.278 283.858 86.5442 284.062 86.8208C284.781 87.7887 285.458 88.7738 285.994 89.8593C286.395 90.6751 286.644 90.7615 287.529 90.5333C288.376 90.3121 289.178 89.9353 290.049 89.7867C291.228 89.5862 292.4 89.3442 293.575 89.1161C293.748 89.0815 293.914 89.0262 294.083 88.9778C295.293 88.6425 296.088 87.7783 296.119 86.444C296.347 86.6203 296.575 86.8 296.807 86.9694C297.643 87.5847 297.854 88.1689 297.561 89.1506C297.46 89.479 297.322 89.7971 297.201 90.1185C295.645 91.28 293.813 91.4425 291.971 91.5807C290.395 91.6983 288.811 91.6568 287.242 91.7882C285.368 91.9437 283.502 91.9057 281.632 91.9126H281.628Z" fill="#817254"/>
<path d="M280.567 72.8795C280.323 73.4971 279.847 73.6953 279.139 73.4741C279.084 73.4568 279.032 73.4291 278.98 73.4049C278.151 70.9333 276.916 68.6899 275.275 66.6607C274.206 65.3402 273.155 64.0059 272.098 62.6785C271.956 62.1842 271.749 61.7002 271.79 61.1679C272.333 61.0434 272.599 61.4686 272.872 61.7763C275.444 64.68 277.943 67.6356 279.502 71.3412C280.2 67.6044 281.511 64.1165 282.43 60.5215C282.503 60.2449 282.544 59.9304 282.886 59.8232C283.07 59.277 283.498 59.239 283.975 59.3081C283.657 61.1264 283.073 62.8721 282.561 64.6351C281.943 66.7644 281.244 68.8765 280.847 71.0647C280.736 71.6662 280.664 72.2711 280.574 72.876L280.567 72.8795Z" fill="#2A491D"/>
<path d="M281.11 74.2899C280.985 74.1585 280.861 74.0306 280.733 73.8993C281.258 72.399 282.071 71.0439 282.907 69.7027C283.277 69.7546 283.512 70.0173 283.768 70.2523C283.892 71.0543 283.218 71.4864 282.921 72.0948C282.859 72.1812 282.79 72.2642 282.721 72.3437C282.676 72.3921 282.634 72.4474 282.596 72.4993C282.537 72.5822 282.441 72.6168 282.361 72.6721C281.984 73.1941 281.563 73.6849 281.279 74.2691C281.231 74.3486 281.175 74.3486 281.11 74.2864V74.2899Z" fill="#2C4A1F"/>
<path d="M302.96 75.8835C302.849 75.7244 302.88 75.5447 302.887 75.3718C302.953 73.4499 302.341 71.7802 300.945 70.4494C298.929 68.5239 296.651 67.6044 293.876 68.7348C293.485 68.8938 293.112 69.0494 292.887 69.4227C292.721 69.6993 292.538 70.0069 292.711 70.3284C292.887 70.6602 293.219 70.5254 293.502 70.5012C295.227 70.3526 296.734 70.7916 298.024 71.7975C296.931 70.9506 295.659 70.5185 294.197 70.5323C292.552 70.5462 292.275 70.757 291.826 72.3886C291.732 72.7274 291.608 73.0593 291.518 73.398C291.376 73.9338 291.515 74.2449 292.054 74.5042C293.471 75.1817 294.605 76.2084 295.435 77.5462C294.688 76.3951 293.727 75.4686 292.534 74.7773C291.611 74.2449 291.235 74.3867 290.982 75.4306C290.55 77.2178 290.253 79.0291 289.969 80.8474C290.204 78.9738 290.588 77.1279 290.986 75.2854C291.21 74.2415 291.107 74.0997 290.066 74.0548C288.566 73.9926 287.2 74.5388 285.804 74.9536C287.287 74.4109 288.78 73.9165 290.391 73.9788C291.031 74.003 291.425 73.7472 291.598 73.08C291.784 72.3714 291.954 71.6558 292.23 70.9748C292.434 70.4667 292.265 70.0968 291.843 69.7511C290.796 68.8869 289.565 68.4583 288.286 68.116C289.551 68.4168 290.768 68.8316 291.795 69.6716C292.196 70 292.531 69.9758 292.797 69.4918C292.911 69.2844 293.039 69.0874 293.067 68.8489C293.101 68.4997 292.911 68.2301 292.735 67.9605C291.587 66.2321 290.111 64.9738 287.982 64.6558C287.512 64.6834 287.041 64.6938 286.575 64.7664C286.36 64.9773 286.091 65.0533 285.804 65.1294C284.919 65.361 284.138 65.8104 283.45 66.4084C282.319 67.3901 282.154 68.4306 282.904 69.6993C283.128 70.083 283.498 70.2592 283.889 70.4079C284.77 70.6672 285.676 70.6637 286.582 70.643C287.287 70.6257 287.982 70.7086 288.663 70.8918C288.88 70.9506 289.188 70.9921 289.192 71.2652C289.192 71.597 288.853 71.6178 288.611 71.6765C288.206 71.7768 287.802 71.6765 287.394 71.642C285.966 71.5175 284.535 71.4104 283.18 72.0672C283.07 72.1328 282.962 72.202 282.852 72.2746C282.779 72.316 282.71 72.3575 282.641 72.4025C282.499 72.482 282.354 72.5511 282.223 72.6479C281.749 73.1007 281.3 73.5674 281.206 74.2588C281.227 74.3383 281.258 74.4143 281.303 74.4834C281.327 74.5146 281.352 74.5491 281.376 74.5802C281.428 74.6425 281.48 74.7047 281.538 74.76C281.874 75.1541 282.129 75.5827 282.116 76.122C282.116 76.3259 282.116 76.5299 282.109 76.7304C282.116 77.1002 281.943 77.4044 281.77 77.7121C281.576 78.0612 281.161 78.2859 281.179 78.756C281.528 79.6755 282.33 79.7689 283.146 79.838C283.581 79.8346 283.961 79.4578 284.418 79.5891C284.432 79.5822 284.442 79.5753 284.456 79.5718C285.368 78.4484 286.537 77.6222 287.709 76.8064C287.826 76.7269 287.978 76.6889 288.117 76.6509C288.462 76.5575 288.618 76.7131 288.514 77.0622C288.421 77.3768 288.231 77.6326 288.013 77.878C287.519 78.4415 286.889 78.8113 286.243 79.1605C285.652 79.4785 285.057 79.7965 284.466 80.118C284.383 80.1802 284.304 80.1802 284.228 80.1111C284.217 80.0904 284.214 80.0696 284.207 80.0489C284.134 80.0904 284.058 80.1284 283.989 80.1699C283.457 80.6607 282.952 81.1723 282.779 81.9121C282.779 82.0953 282.841 82.2647 282.928 82.4237C283.806 83.5022 283.509 84.7328 283.388 85.9427C283.398 86.0913 283.422 86.2434 283.502 86.3644C284.366 87.6607 285.254 88.9363 286.015 90.2983C286.347 90.8928 286.952 90.9931 287.563 90.758C289.416 90.039 291.376 89.8074 293.305 89.4168C294.028 89.2716 294.754 89.0849 295.317 88.5768C295.943 88.0133 296.482 87.3876 296.109 86.437C296.174 86.1536 296.205 85.8874 296.178 85.5797C296.057 84.197 295.5 82.9837 294.833 81.8049C294.401 81.0375 293.941 80.2874 293.53 79.5131C293.343 79.1639 293.115 78.7906 293.326 78.3412C293.858 78.3101 294.2 78.6454 294.508 78.9911C294.76 79.2746 294.971 79.596 295.158 79.9279C295.867 81.1862 296.361 82.5274 296.634 83.9481C296.765 84.6326 296.828 85.3447 297.135 85.9842C297.357 86.437 297.585 86.4958 297.951 86.1812C298.217 85.9531 298.47 85.6973 298.677 85.4173C299.828 83.8963 300.92 82.3338 301.847 80.6642C302.67 79.1812 303.202 77.6118 302.95 75.8731L302.96 75.8835ZM285.963 83.0978C285.766 83.2257 285.527 83.2775 285.292 83.1842C285.123 83.1151 284.995 82.9906 284.954 82.8109C284.905 82.6 285.054 82.4928 285.209 82.4064C285.721 82.123 286.278 81.9467 286.831 81.76C287.135 81.6597 287.442 81.5802 287.75 81.4904C287.847 81.4351 287.937 81.4454 288.02 81.518C287.487 82.2439 286.689 82.6242 285.963 83.0978ZM290.643 83.6578C290.443 83.4642 290.256 83.1427 289.911 83.3155C289.62 83.4607 289.599 83.7788 289.572 84.083C289.479 85.0889 289.396 86.0983 289.209 87.1664C289.368 86.0257 289.52 84.9506 289.572 83.8686C289.586 83.5783 289.651 83.243 289.333 83.0805C289.026 82.9215 288.773 83.1531 288.528 83.3052C287.857 83.72 287.263 84.2316 286.689 84.7709C287.339 84.0968 288.051 83.4746 288.877 83.0459C289.399 82.7728 289.676 82.3891 289.81 81.9121C289.738 82.4825 289.838 82.9146 290.298 83.3155C291.238 84.1314 291.926 85.1269 292.206 86.3714C291.926 85.3274 291.425 84.4079 290.643 83.6612V83.6578ZM298.055 71.8217C298.124 71.877 298.193 71.9323 298.259 71.9876C298.19 71.9289 298.124 71.8736 298.055 71.8217ZM298.394 72.1052C298.432 72.1397 298.47 72.1743 298.511 72.2089C298.473 72.1743 298.435 72.1397 298.394 72.1052Z" fill="#3D622D"/>
<path d="M284.459 79.5822C284.39 79.7585 284.317 79.9314 284.248 80.1076C284.221 80.1872 284.169 80.2459 284.093 80.2874C283.626 80.7817 283.246 81.3383 282.852 81.8879C282.786 81.9363 282.734 81.919 282.7 81.8499C282.686 81.6632 282.675 81.4765 282.662 81.2899C282.738 80.7333 282.973 80.2355 283.249 79.7551C283.509 79.5269 283.813 79.3921 284.145 79.3022C284.4 79.2331 284.421 79.4128 284.459 79.5788V79.5822Z" fill="#2D4B20"/>
<path d="M283.533 85.9151H283.446C283.267 85.4899 283.567 85.0923 283.491 84.643C283.363 83.8686 283.135 83.1358 282.848 82.4168C282.79 82.2301 282.873 82.1886 283.039 82.2301C284.031 83.3467 283.896 84.6153 283.529 85.9151H283.533Z" fill="#7D9972"/>
<path d="M281.262 78.7284C281.203 78.7353 281.151 78.7215 281.103 78.6869C281.113 78.5037 281.213 78.3654 281.327 78.2272C282.206 77.1625 282.216 76.0183 281.635 74.8188C281.587 74.7738 281.573 74.7289 281.587 74.684C281.604 74.639 281.621 74.6183 281.635 74.6183C282.081 74.9951 282.326 75.4652 282.337 76.0563C282.202 76.2879 282.205 76.516 282.33 76.7511C282.351 77.6153 281.725 78.1269 281.258 78.7284H281.262Z" fill="#739168"/>
<path d="M283.042 82.2301C282.98 82.2924 282.914 82.3546 282.852 82.4168C282.724 82.2474 282.489 82.1091 282.7 81.8499C282.748 81.8672 282.8 81.881 282.852 81.8879C282.914 82.002 282.98 82.1161 283.042 82.2301Z" fill="#668A5F"/>
<path d="M282.333 76.7511C282.091 76.5195 282.095 76.2879 282.34 76.0563C282.34 76.2879 282.337 76.5195 282.333 76.7511Z" fill="#86A17B"/>
<path d="M281.11 74.2899C281.165 74.2899 281.224 74.283 281.279 74.2726C281.341 74.3383 281.403 74.4005 281.466 74.4662C281.32 74.4662 281.189 74.4351 281.113 74.2899H281.11Z" fill="#5A7D4F"/>
<path d="M281.635 74.6183C281.635 74.6839 281.635 74.7531 281.635 74.8188C281.497 74.7393 281.455 74.6113 281.462 74.4627C281.521 74.5146 281.58 74.5664 281.638 74.6183H281.635Z" fill="#5A7D4F"/>
<path d="M304.678 70.1279C304.301 69.9551 304.287 69.6198 304.27 69.3743C304.159 67.7151 303.831 66.0558 304.177 64.3896C304.263 63.9817 304.128 63.6602 303.821 63.3664C303.057 62.6336 302.231 61.9768 301.377 61.3546C300.751 60.8983 300.502 60.957 300.129 61.6346C299.513 62.7477 299.154 63.9541 298.915 65.1985C298.836 65.6133 298.75 66.0281 298.639 66.5847C298.307 66.1699 298.369 65.838 298.421 65.5511C298.718 63.961 299.081 62.3916 299.966 61.002C300.153 60.7081 300.129 60.5457 299.842 60.3625C299.296 60.0168 298.763 59.6538 298.228 59.2909C297.944 59.0973 297.633 58.921 297.529 58.5373C297.865 58.361 298.069 58.5926 298.252 58.7412C298.871 59.2459 299.593 59.5847 300.229 60.0583C300.568 60.3106 300.831 60.3037 301.176 60.0859C302.182 59.4533 303.302 59.1111 304.446 58.8311C304.533 58.8104 304.619 58.7723 304.702 58.7793C304.889 58.7896 305.172 58.6756 305.207 58.959C305.238 59.2217 304.961 59.239 304.768 59.2805C303.554 59.5363 302.393 59.9235 301.335 60.5768C301.335 60.8464 301.55 60.9156 301.709 61.0262C302.593 61.6553 303.43 62.3432 304.215 63.0968C304.488 63.3595 304.723 63.4701 305.138 63.3837C305.992 63.2005 306.87 63.1175 307.741 63.0138C308.297 62.9481 308.85 63.0242 309.396 63.1556C309.59 63.2039 309.867 63.197 309.818 63.4805C309.766 63.7812 309.524 63.643 309.327 63.6119C307.945 63.3906 306.593 63.598 305.117 63.8953C305.867 64.7042 306.558 65.4094 307.205 66.1526C307.837 66.882 308.429 67.6494 309.027 68.4099C309.645 69.1911 310.274 69.9654 310.852 70.7778C311.394 71.5417 312.103 72.202 312.521 73.1215C312.055 73.2252 311.948 72.9244 311.806 72.7412C310.565 71.1442 309.324 69.5472 308.111 67.9259C307.212 66.723 306.112 65.7032 305.141 64.5659C305.031 64.438 304.916 64.2894 304.616 64.3136C304.498 65.2746 304.595 66.2598 304.56 67.2346C304.529 68.1956 304.654 69.1496 304.685 70.1175L304.678 70.1279Z" fill="#85A07A"/>
<path d="M274.756 77.3595C272.582 77.8849 270.76 78.8425 269.045 80.118C268.831 79.5684 269.204 79.4059 269.471 79.2227C270.629 78.4104 271.877 77.7605 273.214 77.2938C273.325 77.2558 273.436 77.2178 273.546 77.1798C274.213 76.962 275.008 76.917 275.098 75.9664C275.306 76.0667 275.302 76.1842 275.299 76.2983C275.285 76.6578 275.44 76.7131 275.79 76.6923C277.02 76.6163 278.234 76.7615 279.409 77.1521C279.492 77.1798 279.568 77.2247 279.647 77.2627C279.761 77.3146 279.851 77.3975 279.817 77.5289C279.768 77.7086 279.627 77.7294 279.471 77.6844C278.769 77.477 278.057 77.3215 277.331 77.2005C276.83 77.1175 276.339 77.121 275.845 77.1244C275.309 77.1244 275.174 77.2558 275.14 77.802C275.109 78.3274 275.053 78.8736 275.15 79.3852C275.295 80.1457 275.247 80.9027 275.302 81.6632C275.316 81.8395 275.333 82.0123 275.358 82.1852C275.423 82.6449 275.686 82.8074 276.146 82.7694C277.037 82.7002 277.884 82.9768 278.738 83.1669C278.88 83.198 279.018 83.2533 279.153 83.3156C279.316 83.3881 279.499 83.4884 279.409 83.6993C279.343 83.8479 279.16 83.841 279.018 83.7857C278.5 83.5748 277.95 83.4849 277.407 83.3605C276.913 83.2464 276.415 83.2706 275.918 83.2706C275.565 83.2706 275.475 83.4262 275.541 83.7753C275.776 85.0094 275.976 86.2504 276.198 87.4879C276.267 87.8716 276.433 88.1447 276.83 88.3486C277.532 88.7047 278.24 89.0815 278.776 89.6899C278.911 89.842 279.094 89.963 279.136 90.1773C279.15 90.2533 279.129 90.357 279.084 90.4158C279.029 90.4884 278.925 90.4849 278.856 90.4193C278.683 90.2602 278.51 90.1012 278.348 89.9319C277.874 89.4341 277.304 89.0919 276.519 88.7877C276.83 90.7096 277.4 92.4899 277.743 94.3323C277.3 94.3427 277.283 94.0835 277.231 93.8622C276.878 92.3516 276.522 90.841 276.177 89.3304C276.125 89.1022 276.094 88.8706 275.862 88.6286C274.877 89.5931 274.137 90.7407 273.37 91.9022C273.156 91.4183 273.169 91.4286 273.398 91.0484C274.002 90.0356 274.749 89.1299 275.537 88.2622C275.786 87.9891 275.848 87.7195 275.786 87.3842C275.561 86.1778 275.319 84.9748 275.133 83.7615C275.064 83.319 274.905 83.2775 274.566 83.4711C273.449 84.1175 272.367 84.8193 271.396 85.6765C271.22 85.8321 271.03 86.2123 270.781 85.9738C270.532 85.7353 270.867 85.5002 271.047 85.3343C272.036 84.4528 273.114 83.6854 274.293 83.0909C274.784 82.842 275.022 82.5551 274.932 82.0054C274.683 80.4983 274.801 78.9704 274.749 77.3664L274.756 77.3595Z" fill="#85A07A"/>
<path d="M281.988 88.9294C281.231 88.1896 280.308 87.6711 279.457 87.0593C278.801 86.5857 278.479 85.9393 278.344 85.1373C279.105 84.8849 279.606 85.317 280.09 85.7215C280.626 86.1709 281.044 86.7516 281.618 87.163C281.708 87.2356 281.739 87.3462 281.787 87.4464C281.846 87.5847 281.884 87.7264 281.929 87.8647C281.963 87.9718 281.984 88.079 282.005 88.1896C282.033 88.3348 282.074 88.48 282.102 88.6252C282.109 88.7427 282.088 88.8499 281.988 88.9259V88.9294Z" fill="#807253"/>
<path d="M281.652 87.519C281.642 87.4015 281.632 87.284 281.618 87.1664C282.216 87.5501 282.603 87.0731 283.045 86.8138C283.004 87.5674 283.287 88.2968 283.225 89.0538C283.215 89.1956 283.239 89.3442 283.232 89.4859C283.215 89.8039 283.204 90.2118 282.841 90.2602C282.541 90.3017 282.382 89.9664 282.323 89.6622C282.205 89.4202 282.23 89.1161 281.988 88.9294C281.981 88.8188 281.977 88.7047 281.97 88.5941C281.891 88.48 281.925 88.3279 281.829 88.2207C281.818 88.1067 281.808 87.996 281.801 87.882C281.718 87.7748 281.752 87.6193 281.656 87.5156L281.652 87.519Z" fill="#2A491D"/>
<path d="M271.082 87.8336C272.008 86.6341 273.066 85.9185 274.4 85.5798C274.286 86.0775 273.978 86.4543 273.042 87.0005C272.464 87.3358 271.963 87.9096 271.082 87.8336Z" fill="#7E7152"/>
<path d="M280.895 80.9857C280.909 81.0444 280.923 81.1032 280.937 81.162C280.442 81.2484 280.121 80.9961 279.862 80.6158C279.699 80.4119 279.675 80.2044 279.841 79.9901C279.865 79.7896 279.865 79.5822 279.917 79.3886C279.983 79.1363 280.204 79.0015 280.435 79.0015C280.629 79.0015 280.55 79.3126 280.715 79.3956C280.84 79.7136 280.774 80.0489 280.785 80.3738C280.85 80.5709 280.805 80.7886 280.895 80.9857Z" fill="#345127"/>
<path d="M280.895 80.9857C280.702 80.8094 280.764 80.5881 280.785 80.3738C280.971 80.5501 280.899 80.7748 280.895 80.9857Z" fill="#3D622D"/>
<path d="M281.825 88.2242C281.964 88.3141 281.984 88.4454 281.967 88.5975C281.839 88.5042 281.811 88.3728 281.825 88.2242Z" fill="#3D622D"/>
<path d="M281.652 87.519C281.787 87.6089 281.815 87.7403 281.798 87.8854C281.67 87.7956 281.639 87.6642 281.652 87.519Z" fill="#3D622D"/>
<path d="M290.647 46.5941C289.288 46.4454 288.03 46.7565 286.789 47.2439C286.564 47.3338 286.364 47.5758 286.008 47.4133C286.101 46.8741 285.863 46.3383 285.901 45.7817C285.984 44.5062 285.278 43.3965 283.775 42.9126C282.53 42.5116 281.241 42.3975 279.951 42.5185C277.912 42.7086 275.883 42.9644 273.847 43.196C273.636 43.2202 273.311 43.0854 273.259 43.4035C273.207 43.7146 273.508 43.8321 273.747 43.9496C273.906 44.0291 274.068 44.0948 274.227 44.1674C275.402 44.7067 276.605 45.163 277.846 45.5225C278.583 45.7368 279.284 46.0306 279.941 46.4212C280.37 46.677 280.788 46.9501 281.047 47.4272C280.66 47.4652 280.349 47.2958 280.024 47.1679C278.769 46.6701 277.518 46.1689 276.267 45.6746C275.689 45.4464 275.095 45.3151 274.469 45.3081C271.956 45.2839 269.343 47.6035 269.073 50.1096C269.018 50.6109 269.225 50.8356 269.73 50.763C270.221 50.6904 270.705 50.5625 271.192 50.4588C271.303 50.4069 271.413 50.3896 271.524 50.4C271.524 50.3931 271.524 50.3896 271.531 50.3827C271.555 50.3481 271.576 50.3309 271.6 50.3309C273.256 49.9402 274.911 49.6153 276.737 50.0128C276.208 50.4449 275.682 50.4276 275.178 50.4311C273.975 50.438 272.779 50.4553 271.586 50.6212C271.475 50.642 271.361 50.6662 271.251 50.6869C271.192 50.7249 271.133 50.756 271.068 50.7802C270.96 50.8183 270.846 50.8528 270.743 50.8978C269.512 51.4474 268.817 52.3393 268.914 53.7462C268.949 54.237 268.949 54.7279 268.966 55.2188C269.045 55.5091 269.066 55.803 268.959 56.0933C269.014 56.2178 269.066 56.3457 269.121 56.4701C269.429 56.7916 269.633 57.1822 269.782 57.5832C270.162 58.6133 270.76 59.4775 271.596 60.1827L271.614 60.2C272.111 60.5733 272.64 60.2968 273.152 60.2622C274.597 60.1551 276.021 60.4869 277.463 60.4351C279.599 60.3556 280.93 59.1042 281.103 57.0232C281.192 58.1812 281.718 59.1388 282.828 59.8336C283.287 59.8197 283.598 59.4844 283.982 59.3116C286.568 58.2884 288.956 56.9644 290.858 54.8731C292.081 53.5249 293.008 52.0627 293.357 50.2202C293.792 47.9284 292.24 46.7669 290.661 46.5941H290.647ZM280.944 56.8262C280.954 56.0069 280.94 55.1911 280.788 54.3788C280.688 53.8464 280.646 53.2899 280.809 52.5536C281.331 53.8222 281.255 54.9802 281.272 56.1244C281.002 56.2835 281.217 56.6706 280.94 56.8262H280.944ZM286.544 54.7728C286.509 54.8765 286.454 54.9941 286.257 54.9768C286.087 54.5205 286.236 54.0262 286.16 53.5526C286.046 52.8301 285.814 52.1388 285.645 51.4336C285.603 51.2642 285.569 51.0948 285.534 50.922C285.489 50.7007 285.659 50.6039 285.8 50.521C285.946 50.438 286.07 50.5348 286.188 50.6351C286.561 50.96 286.72 51.3817 286.817 51.8553C287.021 52.8578 286.865 53.8222 286.544 54.7728Z" fill="#3D622D"/>
<path d="M269.111 56.4667C269.384 56.4425 269.54 56.5877 269.647 56.8262C269.813 57.1995 270.02 57.5556 270.162 57.9358C270.39 58.5511 270.743 59.0765 271.202 59.5328C271.389 59.7195 271.603 59.882 271.586 60.1827C270.794 60.0894 270.511 59.4222 270.165 58.8657C269.954 58.5235 269.775 58.4301 269.398 58.558C268.928 58.717 268.44 58.8415 267.953 58.9244C267.521 58.9936 267.483 59.1803 267.656 59.5225C268.212 60.6356 268.51 61.8247 268.696 63.0449C268.796 63.7156 268.786 64.3896 268.748 65.0637C268.741 65.2089 268.727 65.4059 268.551 65.3956C268.309 65.3852 268.354 65.1847 268.364 64.998C268.475 63.1728 268.026 61.4548 267.327 59.7921C267.047 59.1215 267.006 59.1111 266.352 59.3738C265.319 59.7886 264.289 60.2138 263.266 60.6563C262.533 60.9743 262.488 61.078 262.65 61.8696C262.961 63.401 262.992 64.9531 262.951 66.5086C262.944 66.7091 262.937 66.7091 262.681 67.0928C262.491 66.8612 262.578 66.5882 262.585 66.3427C262.63 64.8736 262.474 63.4217 262.242 61.9733C262.146 61.3546 262.076 61.2923 261.537 61.5965C260.075 62.4158 258.748 63.4252 257.379 64.3862C256.317 65.1328 255.92 66.0005 256.055 67.2726C256.151 68.1886 256.065 69.1358 255.571 70.0069C255.428 69.7258 255.45 69.0932 255.636 68.1091C255.757 67.4662 255.678 66.8232 255.695 66.1007C255.087 66.3427 254.776 66.8509 254.385 67.2449C254.005 67.6321 253.659 68.0538 253.168 68.6104C253.158 67.7254 253.656 67.3417 254.029 66.9131C254.423 66.4603 254.872 66.0523 255.26 65.5477C254.44 65.4509 253.666 65.4025 252.892 65.5477C252.664 65.5891 252.429 65.6203 252.197 65.6375C252.041 65.6479 251.893 65.5857 251.879 65.4094C251.865 65.2296 252 65.157 252.159 65.1398C253.175 65.0153 254.202 64.7837 255.218 64.9807C255.806 65.0948 256.165 64.8736 256.542 64.5348C257.261 63.8849 258.046 63.3215 258.82 62.7407C259.712 62.0701 260.718 61.5827 261.693 60.881C260.466 59.8128 258.837 59.7333 257.427 58.9521C257.769 58.6928 258.025 58.7481 258.26 58.8277C259.453 59.2286 260.683 59.5536 261.741 60.2726C262.121 60.5319 262.46 60.563 262.875 60.3314C264.054 59.6746 265.353 59.2805 266.664 58.6998C265.958 57.2514 264.652 56.4286 263.497 55.3743C263.843 55.16 264.057 55.2637 264.261 55.4296C265.246 56.2212 266.242 57.0025 266.864 58.1363C267.04 58.4543 267.196 58.5788 267.618 58.4924C268.281 58.3575 268.907 58.1259 269.588 57.9877C269.547 57.4207 269.076 57.0198 269.118 56.4667H269.111Z" fill="#85A07A"/>
<path d="M276.211 57.8044C276.201 57.1096 276.695 56.5877 276.858 55.9654C277.027 55.319 277.252 54.683 277.342 53.8672C275.745 55.077 274.365 56.3872 272.948 57.6731C272.879 57.1235 273.238 56.8296 273.567 56.5358C274.352 55.8306 275.164 55.1565 275.945 54.4479C276.173 54.2405 276.481 54.0849 276.605 53.6425C275.914 53.6425 275.254 53.6805 274.6 53.6321C273.968 53.5837 273.363 53.9881 272.654 53.7358C272.862 53.3728 273.166 53.3452 273.48 53.2899C274.587 53.0894 275.696 53.0721 276.813 53.117C277.172 53.1309 277.497 53.1067 277.801 52.8647C278.814 52.0696 279.844 51.2988 280.919 50.4795C280.418 49.9091 279.82 49.5012 279.177 49.1798C278.092 48.637 276.951 48.2914 275.71 48.3259C275.402 48.3363 274.856 48.5057 274.867 48.0217C274.877 47.6518 275.406 47.8178 275.696 47.8178C277.653 47.8178 279.371 48.4746 280.85 49.7536C281.383 50.2133 281.4 50.2272 281.974 49.84C282.337 49.5946 282.662 49.2765 283.045 49.0726C283.616 48.7684 283.688 48.2395 283.671 47.7279C283.626 46.3901 282.99 45.3911 281.804 44.7516C281.704 44.6963 281.618 44.6202 281.486 44.5269C281.735 44.1881 281.998 44.2884 282.243 44.444C283.291 45.1077 283.982 46.0168 284.086 47.2854C284.2 48.6681 284.2 48.7442 285.638 48.4953C286.972 48.2637 288.196 48.5644 289.43 48.9412C289.793 49.0518 290.142 49.2178 290.429 49.4839C290.522 49.5704 290.574 49.6706 290.481 49.7847C290.419 49.8607 290.329 49.8815 290.242 49.8435C290.08 49.7743 289.928 49.681 289.765 49.6153C288.39 49.0553 286.986 48.682 285.482 49.0207C285.341 49.0518 285.189 49.0553 285.043 49.0484C283.834 48.9827 282.931 49.6153 282.053 50.3239C281.787 50.5383 281.912 50.7353 282.046 50.9289C282.389 51.4094 282.689 51.9106 282.962 52.4291C283.315 53.0928 283.381 53.8257 283.519 54.5412C283.54 54.6449 283.498 54.7728 283.446 54.8731C283.412 54.9388 283.318 55.001 283.242 55.0114C283.153 55.0252 283.087 54.9388 283.07 54.8489C283.052 54.7625 283.049 54.6726 283.045 54.5862C282.994 53.2622 282.371 52.1802 281.618 51.1467C281.421 50.877 281.258 50.839 280.968 51.0326C279.986 51.679 279.07 52.4118 278.154 53.1481C277.884 53.3659 277.774 53.6252 277.739 53.9778C277.615 55.2499 277.169 56.4286 276.581 57.5556C276.516 57.68 276.453 57.8286 276.191 57.8114L276.211 57.8044Z" fill="#85A07A"/>
<path d="M294.819 67.9743C295.749 67.9985 296.683 67.8222 297.602 68.1264C299.047 68.6035 300.291 69.3536 301.315 70.5151C302.01 71.3032 302.542 72.1501 302.86 73.1388C302.946 73.4084 303.157 73.564 303.333 73.7541C303.085 73.7748 302.998 73.9131 302.998 74.1551C302.998 74.7323 302.974 75.3096 302.96 75.8869C302.76 75.4617 302.656 74.9985 302.632 74.5422C302.5 72.2435 301.225 70.6983 299.386 69.5091C298.331 68.8282 297.222 68.3407 295.919 68.4721C295.124 68.5516 294.384 68.8489 293.62 69.0425C293.188 69.1496 292.967 69.5886 292.825 70.3699C294.857 69.962 296.665 70.4736 298.28 71.6869C298.729 72.0257 299.192 72.3852 299.403 73.0212C298.919 73.0869 298.753 72.762 298.546 72.5511C297.194 71.203 295.57 70.6188 293.675 70.7605C292.614 70.84 292.455 70.9575 292.144 71.9911C291.974 72.5511 291.843 73.1215 291.67 73.6815C291.584 73.9615 291.653 74.1067 291.926 74.2207C293.312 74.8015 294.422 75.7314 295.307 76.9378C295.545 77.2627 295.836 77.5738 295.725 78.0405C295.393 78.0578 295.331 77.7985 295.217 77.6153C294.505 76.4642 293.516 75.6069 292.365 74.9259C292.213 74.8361 292.057 74.7531 291.891 74.6943C291.591 74.5872 291.387 74.6632 291.307 75.0089C291.159 75.6657 290.958 76.3121 290.841 76.9723C290.53 78.7284 290.253 80.4879 289.959 82.2474C289.911 82.5378 290.001 82.7521 290.215 82.9491C290.54 83.2464 290.854 83.5541 291.152 83.879C291.93 84.7259 292.324 85.7595 292.524 86.8726C292.541 86.9625 292.493 87.0385 292.33 87.1111C291.857 86.5235 291.895 85.7042 291.48 85.082C291.072 84.4701 290.678 83.8583 290.042 83.3881C289.779 83.5817 289.783 83.8617 289.752 84.1486C289.641 85.2237 289.513 86.2988 289.389 87.3704C289.375 87.4879 289.368 87.6054 289.34 87.7161C289.313 87.8301 289.247 87.958 289.119 87.9407C288.943 87.92 288.884 87.7714 288.922 87.6123C289.161 86.6133 289.157 85.5832 289.33 84.5738C289.406 84.121 289.465 83.6578 289.316 83.1047C288.307 83.6336 287.46 84.2696 286.727 85.0681C286.627 85.1753 286.544 85.2963 286.444 85.4035C286.381 85.4691 286.295 85.4899 286.212 85.4311C286.132 85.3723 286.122 85.2894 286.146 85.1961C286.212 84.961 286.368 84.7882 286.527 84.6153C287.249 83.8272 288.082 83.1807 289.019 82.6761C289.403 82.4721 289.537 82.2301 289.6 81.8049C289.949 79.4612 290.298 77.1175 290.896 74.8222C291 74.4212 290.872 74.2968 290.488 74.2691C289.323 74.1896 288.213 74.4454 287.118 74.7911C286.585 74.9605 286.06 75.1437 285.531 75.3096C285.348 75.3684 285.158 75.3373 285.102 75.1299C285.057 74.9536 285.227 74.8844 285.362 74.8395C286.976 74.3106 288.566 73.6953 290.312 73.7644C291.148 73.7956 291.148 73.7644 291.383 72.9832C291.601 72.2538 291.805 71.5175 292.061 70.802C292.192 70.4321 292.106 70.2489 291.805 70C290.875 69.2361 289.807 68.7936 288.67 68.4617C288.293 68.3511 287.854 68.3649 287.557 68.0158C288.355 67.601 290.574 68.4375 292.317 69.7995C292.624 69.5299 292.725 69.1254 292.942 68.8005C293.406 68.1644 294.062 67.964 294.812 67.9778L294.819 67.9743Z" fill="#85A17A"/>
</g>
<defs>
<clipPath id="clip0_55_2890">
<rect width="322" height="193.705" fill="white"/>
</clipPath>
</defs>
</svg>
