<svg width="210" height="290" viewBox="0 0 210 290" fill="none" xmlns="http://www.w3.org/2000/svg">
<g clip-path="url(#clip0_112_140)">
<g filter="url(#filter0_d_112_140)">
<path d="M160.731 148.463C162.751 150.134 163.857 152.468 165.075 154.68C168.672 161.215 170.224 168.36 171.186 175.687C171.936 181.383 172.224 187.095 172.471 192.828C172.818 200.874 173.154 208.916 173.019 216.967C172.927 222.551 172.771 228.143 172.356 233.71C172.051 237.797 171.689 241.91 170.565 245.891C170.496 246.135 170.547 246.413 170.542 246.674C170.301 248.016 169.437 249.061 168.853 250.239C167.767 251.744 166.667 253.238 165.294 254.506C163.754 255.659 162.256 256.883 160.359 257.436C151.453 257.693 144.324 254.383 139.468 246.778C136.077 241.467 133.565 235.688 130.882 230.004C127.165 222.132 124.037 214.02 120.86 205.927C118.448 199.785 116.213 193.579 114.141 187.313C113.663 185.869 113.069 184.462 112.407 183.101C111.753 181.76 112.033 180.808 113.201 179.992C113.76 179.601 114.281 179.159 114.676 178.591C117.397 175.336 120.716 172.692 123.771 169.779C125.239 168.378 126.791 167.057 128.331 165.731C128.892 165.248 129.361 164.474 130.318 164.878C131.359 168.533 133.398 171.737 135.048 175.109C137.672 180.47 140.024 185.951 142.454 191.398C142.818 192.215 143.228 193.002 143.726 193.737C144.666 195.129 146.257 195.277 147.506 194.155C148.207 193.524 148.023 192.843 147.673 192.16C146.84 190.531 145.839 188.992 145.018 187.353C144.786 186.891 144.378 186.51 144.48 185.927C144.524 185.778 144.604 185.649 144.714 185.538C145.448 185.159 145.366 184.384 145.519 183.758C147.926 173.796 151.547 164.289 156.255 155.198C157.263 153.253 158.341 151.333 159.49 149.463C159.776 149 159.976 148.37 160.73 148.46L160.731 148.463Z" fill="#EBE9DF"/>
<path d="M64.704 74.8248C62.7394 73.2878 63.3315 71.3457 63.9355 69.4738C65.2616 65.3623 66.4323 61.1999 67.6508 57.0615C68.956 52.63 70.1596 48.1537 71.3153 43.6729C71.6293 42.4529 72.4501 41.4303 72.5861 40.1564C73.3112 39.9322 74.1993 40.4599 74.5985 41.2135C75.4014 42.7325 76.8501 43.5593 78.3288 44.1782C82.3073 45.8438 86.4427 46.9442 90.7531 47.4092C96.5675 48.0371 102.388 48.5798 108.238 48.3077C114.165 48.0326 120.094 47.6828 125.813 45.8647C126.008 45.8034 126.227 45.8243 126.437 45.8064C127.314 46.4314 127.37 47.4211 127.479 48.3391C128.302 55.2136 129.33 62.0641 129.964 68.9595C130.252 72.0888 130.403 75.2329 130.677 78.3652C130.732 78.9901 130.719 79.6255 130.521 80.2385C130.452 80.4239 130.346 80.5869 130.209 80.7289C128.422 81.7396 126.383 81.7277 124.448 82.091C115.069 83.8522 105.58 83.4874 96.1115 83.4037C94.2367 83.3872 92.3663 83.0179 90.4959 82.8056C82.3491 81.7187 74.2173 80.5525 66.7717 76.737C65.9314 76.3064 64.8669 76.0268 64.7025 74.8233L64.704 74.8248Z" fill="#EBE9DF"/>
<path d="M145.042 131.157C145.783 132.207 145.691 133.633 146.6 134.608C147.891 137.318 147.298 141.046 145.106 143.345C140.89 147.769 136.555 152.074 131.868 156.007C129.775 157.764 129.747 157.97 131.137 160.448C131.409 160.932 131.868 161.382 131.533 162.024C130.606 162.067 129.913 162.509 129.189 163.094C125.399 166.157 121.806 169.448 118.094 172.601C116.321 174.107 115.669 173.887 114.826 171.775C112.825 166.764 110.923 161.717 109.31 156.569C108.593 154.279 107.875 151.959 108.095 149.495C108.649 145.507 111.127 142.803 114.163 140.5C116.061 139.062 118.239 138.142 120.725 137.318C120.021 137.208 119.591 137.395 119.153 137.414C118.377 137.447 118.025 137.06 117.9 136.317C117.502 133.993 120.068 130.142 122.403 129.607C123.274 129.406 124.071 129.631 124.797 130.114C126.327 131.133 127.832 132.183 128.89 133.741C129.114 134.07 129.345 134.409 129.757 134.557C128.576 132.543 126.966 130.937 125.061 129.605C123.753 128.692 123.713 128.163 124.832 127.022C126.305 125.522 127.724 125.537 129.436 126.792C131.565 128.351 132.725 130.697 134.595 132.796C133.135 130.064 131.607 127.715 129.231 126.056C128.331 125.426 128.279 124.866 129.255 124.295C129.753 124.003 130.243 123.694 130.768 123.457C132.425 122.711 133.625 123.006 134.808 124.428C136.642 126.633 138.212 129.016 139.564 131.547C138.505 128.838 137.092 126.362 135.027 124.286C134.606 123.863 133.938 123.442 134.235 122.71C134.576 121.867 135.415 121.961 136.141 121.95C138.155 121.92 139.596 123 140.851 124.423C142.111 125.856 142.968 127.529 143.762 129.248C144.083 129.943 144.322 130.721 145.045 131.157H145.042Z" fill="#FBC1A0"/>
<path d="M129.289 42.9957C127.301 44.3143 124.913 44.277 122.714 44.7958C119.277 45.6091 115.757 45.9978 112.197 46.1997C108.636 46.4015 105.085 46.388 101.53 46.4344C97.7606 46.4822 94.0692 45.7586 90.3449 45.3116C86.8867 44.8959 83.6483 43.8434 80.4174 42.6637C78.5455 41.9805 77.3525 40.445 77.2912 38.8468C77.2403 37.4982 78.3198 37.099 79.0643 36.477C80.6985 35.109 82.7782 34.4915 84.7412 33.9294C89.4448 32.5823 94.2261 31.6419 99.154 31.2367C105.411 30.7224 111.601 31.0678 117.72 32.0635C122.27 32.8036 126.803 33.9578 131.024 35.9866C132.581 36.7357 134.036 37.6327 135.279 38.8497C134.672 39.8933 133.827 40.3329 132.679 39.7647C132.061 39.4583 131.668 39.6257 131.421 40.1938C130.937 41.3062 130.019 42.0792 129.288 42.9972L129.289 42.9957Z" fill="#EBE9DF"/>
<path d="M131.45 162.01C131.269 160.893 130.405 160.122 129.967 159.119C129.497 158.045 129.644 157.401 130.485 156.677C134.038 153.624 137.535 150.51 140.825 147.17C142.183 145.791 143.645 144.502 144.888 143.027C146.582 141.016 147.211 138.627 146.795 135.997C146.722 135.535 146.665 135.07 146.601 134.606C151.243 137.946 155.22 142.015 159.149 146.131C159.54 146.539 159.807 147.065 160.132 147.536C159.88 148.883 158.883 149.819 158.209 150.919C155.569 155.225 153.501 159.805 151.55 164.446C149.374 169.622 147.639 174.949 146.006 180.316C145.474 182.065 145.402 183.915 144.713 185.616L144.656 185.654C143.971 185.553 143.757 184.958 143.517 184.466C141.395 180.138 139.218 175.837 137.14 171.486C136.035 169.173 134.912 166.862 133.746 164.574C133.248 163.596 132.75 162.919 131.593 163.694C131.149 163.164 131.314 162.584 131.45 162.006V162.01Z" fill="#EBE9DF"/>
<path d="M129.289 42.9956C129.159 42.9164 128.717 42.9134 128.99 42.7056C130.07 41.8833 130.686 40.753 131.285 39.5958C131.506 39.1697 131.868 38.5642 132.303 39.0561C133.463 40.3643 134.317 39.2355 135.28 38.8497C137.84 40.6648 138.502 43.5264 139.224 46.2834C141.269 54.0908 143.2 61.9281 145.181 69.7519C145.581 71.3352 145.915 72.9096 145.028 74.448C142.177 76.758 138.774 77.984 135.422 79.2981C134.256 79.7556 133.051 80.1175 131.852 80.4853C131.317 80.6497 130.757 80.9218 130.224 80.4554C129.902 74.4376 129.546 68.4273 128.712 62.4484C128.075 57.8764 127.627 53.2789 127.055 48.6979C126.934 47.7231 126.647 46.7693 126.437 45.8049C127.497 45.1232 128.76 44.9796 129.892 44.4907C130.499 44.2291 131.064 43.7626 130.756 43.0629C130.421 42.3049 129.796 42.8073 129.289 42.9927V42.9956Z" fill="#D1C9BA"/>
<path d="M130.224 80.4554C134.996 79.213 139.596 77.5579 143.766 74.8577C144.149 74.6095 144.484 74.2029 145.028 74.4481C146.713 77.6595 147.236 81.1416 147.438 84.7015C147.477 85.3772 147.534 86.053 147.582 86.7288C147.559 87.0936 147.621 87.4883 147.501 87.8187C146.885 89.5261 147.793 90.042 149.264 90.2019C149.759 90.2558 150.428 90.2393 150.478 90.939C150.523 91.5909 149.856 91.7239 149.421 91.9602C148.978 92.2009 148.47 92.322 147.749 92.5821C148.935 93.074 149.896 93.4642 150.85 93.8754C151.228 94.0384 151.656 94.1879 151.683 94.7052C151.713 95.2628 151.339 95.5708 150.914 95.7906C150.016 96.2571 148.972 96.6667 148.05 96.3797C146.335 95.8444 145.919 96.6458 145.829 98.0617C146.151 98.8481 145.862 99.5792 145.607 100.304C145.112 101.713 144.861 103.188 144.394 104.604C144.328 104.84 144.236 105.068 144.183 105.308C143.844 106.655 143.392 107.968 143.01 109.302C142.739 110.242 142.394 111.175 141.349 111.576C139.707 111.733 139.937 110.52 139.851 109.537C139.912 107.65 140.223 105.787 140.422 103.912C140.585 102.377 140.405 102.209 138.849 102.269C134.492 102.436 130.786 99.6525 129.72 95.3615C129.12 92.9484 128.962 90.498 129.273 88.0236C129.618 86.9097 129.434 85.766 129.461 84.6357C129.431 84.2828 129.461 83.93 129.475 83.5786C129.57 82.5231 129.639 81.4601 130.204 80.5167L130.224 80.4584V80.4554Z" fill="#1B2A2E"/>
<path d="M140.232 109.447C140.317 110.31 139.915 111.504 141.518 111.331C141.538 111.379 141.589 111.438 141.576 111.473C140.39 114.467 140.341 117.772 139.049 120.736C138.654 121.094 138.674 121.509 139.045 121.811C141.157 123.534 142.829 125.566 143.7 128.191C143.727 128.272 143.983 128.275 144.134 128.315C144.437 129.261 144.739 130.209 145.043 131.156C144.862 131.784 144.704 131.882 144.336 131.221C143.194 129.176 142.427 126.926 140.917 125.078C139.489 123.332 137.855 122.074 135.435 122.338C135.062 122.378 134.652 122.379 134.479 122.753C134.269 123.2 134.701 123.371 134.957 123.62C137.165 125.776 138.746 128.355 139.928 131.178C140.093 131.571 140.679 132.225 140.012 132.539C139.466 132.796 139.33 132.011 139.119 131.648C137.813 129.393 136.549 127.122 134.839 125.123C133.124 123.118 132.456 122.928 130.218 124.211C129.735 124.488 129.143 124.616 128.737 125.223C131.305 126.815 133.052 129.122 134.47 131.709C134.668 132.072 134.836 132.45 135.011 132.826C135.135 133.09 135.13 133.349 134.839 133.494C134.507 133.658 134.398 133.379 134.245 133.167C133.547 132.189 132.783 131.251 132.146 130.236C131.264 128.832 130.041 127.769 128.784 126.759C127.422 125.664 124.802 126.546 124.333 128.166C124.158 128.767 124.617 128.807 124.968 129.033C126.975 130.327 128.615 132.012 129.981 133.956C130.247 134.336 130.822 134.876 130.221 135.312C129.545 135.804 129.362 134.998 129.099 134.62C127.882 132.872 126.332 131.489 124.532 130.377C123.508 129.743 122.492 129.65 121.482 130.469C119.644 131.96 118.088 133.582 118.228 136.205C118.27 136.991 118.587 137.269 119.314 137.037C120.063 136.798 120.798 136.64 122.014 137.106C120.743 137.647 119.84 138.072 118.91 138.422C115.119 139.85 112.06 142.17 109.878 145.627C109.135 146.803 108.737 148.077 108.473 149.415C108.207 149.942 108.382 150.504 108.338 151.049C108.267 151.948 107.815 151.885 107.226 151.513C106.852 150.779 106.327 150.338 105.423 150.41C104.871 150.453 104.306 150.359 103.768 150.173C103.33 149.934 103.102 149.532 102.916 149.095C101.775 143.36 97.7111 140.374 92.7339 138.223C92.0851 137.942 90.8576 137.972 91.1506 136.897C91.4332 135.856 92.4902 136.1 93.3036 136.374C94.4159 136.747 94.6267 136.299 94.4085 135.312C93.9435 133.204 92.7908 131.588 90.9907 130.414C90.4599 130.069 89.9217 129.946 89.3715 130.303C88.0154 131.184 86.5128 131.867 85.5605 133.283C85.1224 133.935 84.5273 134.47 83.9188 134.973C83.56 135.269 83.1384 135.648 82.6749 135.222C82.2503 134.832 82.4387 134.322 82.7078 133.926C83.7095 132.449 84.7486 130.999 86.1974 129.906C86.323 129.812 86.4874 129.743 86.5697 129.619C87.0331 128.918 88.6463 128.988 88.0767 127.647C87.5953 126.512 85.3332 126.093 84.1401 126.774C82.2608 127.844 80.9899 129.517 79.7834 131.242C79.3932 131.802 79.0388 132.386 78.5963 132.906C78.2106 133.358 77.756 133.839 77.1326 133.437C76.545 133.059 76.8919 132.489 77.0952 132.023C78.1493 129.611 79.894 127.739 81.8242 126.014C82.2339 125.648 82.953 125.412 82.7527 124.706C82.5747 124.078 81.884 124.005 81.3398 123.849C79.9045 123.438 78.6621 123.677 77.6708 124.906C76.0546 126.913 74.5595 128.992 73.3575 131.28C72.9822 131.993 72.5546 133.116 71.6007 132.624C70.5527 132.084 71.4108 131.127 71.7442 130.435C73.1093 127.599 74.579 124.821 77.2163 122.728C74.9557 122.206 72.269 123.513 70.7679 125.687C69.6033 127.373 68.5776 129.139 67.7135 131C67.5385 131.375 67.2799 131.811 66.8044 131.761C66.2498 131.704 66.3185 131.18 66.2737 130.774C66.4187 129.417 66.9674 128.2 67.5864 127.008C68.8946 125.214 69.7603 123.042 71.8967 121.944C72.3976 121.687 72.5322 121.134 72.749 120.662C73.2184 119.925 73.0345 119.165 72.8461 118.397C72.6488 117.592 72.3677 116.788 72.6817 115.946C72.7534 115.797 72.8701 115.696 73.0285 115.647C74.105 116.543 73.963 117.909 74.2994 119.077C74.576 120.037 74.9752 120.385 76.0337 120.407C79.5756 120.481 82.9844 121.058 85.5261 123.912C85.9761 124.417 86.6324 124.474 87.2335 124.645C88.5013 125.006 89.5419 125.643 90.0428 126.938C90.2431 127.454 90.6139 127.771 91.0908 128.049C94.2859 129.91 96.1667 132.684 96.5913 136.36C96.7124 137.404 97.1505 138.085 97.9743 138.675C100.538 140.508 102.51 142.835 103.811 145.736C104.568 147.424 106.918 147.635 107.776 145.947C109.546 142.463 112.309 139.971 115.28 137.622C115.769 137.236 115.926 136.688 116.071 136.124C116.964 132.633 118.707 129.752 121.938 127.932C122.309 127.723 122.57 127.388 122.815 127.044C122.998 126.789 123.14 126.47 123.392 126.303C126.145 124.467 128.498 121.994 131.928 121.245C135.089 120.554 136.57 117.997 137.801 115.357C138.61 113.618 139.635 111.923 139.714 109.909C139.725 109.65 139.906 109.423 140.236 109.448L140.232 109.447Z" fill="#D6856A"/>
<path d="M144.711 185.619C144.485 182.657 145.719 179.996 146.526 177.271C148.948 169.095 152.133 161.212 156.14 153.681C157.286 151.526 158.46 149.363 160.13 147.537C160.33 147.845 160.532 148.155 160.732 148.463C158.704 151.19 157.149 154.207 155.663 157.235C151.28 166.162 147.804 175.429 145.607 185.151C145.533 185.473 145.626 186.669 144.712 185.619H144.711Z" fill="#ADAB9C"/>
<path d="M184.128 290.195C184.143 290.3 184.114 290.391 184.041 290.469C177.327 290.429 170.612 290.363 163.896 290.355C149.413 290.34 134.932 290.358 120.449 290.351C119.719 290.351 118.991 290.251 118.263 290.197C117.823 289.659 118.175 289.189 118.444 288.766C123.348 281.018 128.806 273.688 134.76 266.905C132.74 268.504 131.056 270.639 129.347 272.731C125.906 276.944 122.608 281.267 119.682 285.864C119.061 286.837 118.511 287.848 117.946 288.85C117.626 289.415 117.227 289.865 116.673 290.188C112.487 290.506 108.293 290.357 104.103 290.357C86.7491 290.36 69.3955 290.301 52.0418 290.297C43.8636 290.294 35.6854 290.364 27.5058 290.384C27.0124 290.384 26.4517 290.633 26.0226 290.153C25.9269 289.826 26.1512 289.751 26.3874 289.684C27.4759 289.46 27.4639 288.492 27.6418 287.718C28.6106 283.538 29.4823 279.336 30.6978 275.216C31.2899 273.211 31.9537 271.228 32.3663 269.164C32.6549 267.715 33.9377 266.7 34.4236 265.311C34.9185 263.897 35.8574 262.802 36.7141 261.611C38.4753 259.16 41.0215 258.405 43.747 257.967C46.2244 257.569 48.7197 257.294 51.2405 257.471C51.8998 257.442 52.4485 257.779 53.0301 258.012C59.9599 260.785 67.0272 259.338 72.2107 254.234C72.9508 253.506 73.5608 252.61 74.5879 252.215C75.1486 252.138 75.4117 252.519 75.7212 252.896C80.6924 258.934 85.0088 265.453 89.5778 271.786C90.6483 273.271 91.647 274.812 92.6771 276.33C91.7606 274.893 90.9069 273.425 90.2521 271.846C89.9187 271.04 89.8215 270.316 90.6573 269.769C91.3465 269.316 91.0863 268.851 90.7679 268.303C89.7318 266.519 88.3668 264.989 87.0331 263.444C83.4673 259.316 80.0794 255.043 76.6452 250.808C76.4792 250.604 76.3252 250.393 76.2639 250.128C76.3058 249.672 76.5674 249.431 77.007 249.364C78.988 250.52 80.9032 251.78 82.799 253.072C86.9973 255.932 91.2613 258.697 95.464 261.552C97.9369 263.233 100.194 265.187 102.512 267.071C100.981 265.282 99.1599 263.771 97.6782 261.939C95.2039 258.882 95.5447 257.915 99.3034 256.844C102.424 255.956 105.399 254.634 108.407 253.437C113.807 251.285 119.199 249.114 124.69 247.208C125.338 246.984 125.873 246.525 126.553 246.387C126.731 246.352 126.949 246.435 127.072 246.223C126.807 246.235 126.706 246.093 126.718 245.843C128.13 244.922 129.72 244.855 131.328 244.873C132.127 245.191 132.444 245.931 132.838 246.607C134.888 250.118 137.336 253.341 140.541 255.845C145.852 259.993 151.754 260.256 157.919 258.033C158.456 257.838 158.956 257.514 159.566 257.58C161.488 257.686 163.431 258.01 165.324 257.877C169.397 257.593 172.294 259.275 174.416 262.581C176.745 266.208 178.618 270.022 179.523 274.292C180.227 277.619 181.248 280.875 181.984 284.2C182.334 285.78 182.622 287.376 183.047 288.947C183.249 289.691 183.661 289.877 184.131 290.194L184.128 290.195Z" fill="#364146"/>
<path d="M116.672 290.188C118.643 286.561 120.952 283.141 123.33 279.782C125.224 277.106 127.322 274.569 129.406 272.033C130.831 270.3 132.285 268.581 133.954 267.063C134.455 266.607 134.908 266.105 135.847 265.969C135.234 267.543 133.921 268.382 133.019 269.49C129.294 274.066 125.602 278.661 122.335 283.582C120.902 285.741 119.242 287.76 118.263 290.198C117.732 290.195 117.203 290.192 116.672 290.189V290.188Z" fill="#1E292D"/>
<path d="M72.9435 120.78C71.8461 120.512 70.9491 121.293 69.919 121.363C67.3414 121.539 64.9986 120.828 62.9054 119.353C61.3117 118.231 60.147 116.686 59.0331 115.11C59.0974 114.21 59.1363 113.322 58.2751 112.712C57.8386 112.403 57.8012 111.938 57.8042 111.452C57.8086 110.459 57.9357 109.442 57.7713 108.478C56.9744 103.825 59.4383 100.754 62.6946 98.0362C64.8222 97.1466 66.7972 97.8479 68.7109 98.7105C69.4629 99.0499 69.6558 99.9335 69.8801 100.689C70.4766 102.699 71.2436 104.651 71.891 106.644C72.0704 107.197 72.1167 108.116 72.9106 107.988C73.564 107.881 73.3308 107.034 73.4115 106.49C73.8002 103.897 73.555 101.257 73.9961 98.6687C74.0753 98.2067 74.1097 97.7267 74.4446 97.3485C76.8906 96.7893 79.3082 96.1928 81.5658 95.0027C85.4485 92.9559 88.0934 89.8177 89.9114 85.9155C90.6904 84.2424 90.9699 84.1557 92.7745 84.217C99.7836 84.4533 106.779 84.9571 113.815 84.5265C118.837 84.2185 123.847 83.8776 128.848 83.3364C129.221 83.2961 129.582 83.3245 129.89 83.5756C129.878 83.915 129.866 84.2544 129.856 84.5938C129.554 85.7211 129.938 86.8918 129.642 88.0191C129.709 90.471 129.552 92.935 130.177 95.351C131.317 99.7571 135.117 102.369 139.616 101.665C140.83 101.475 141.063 101.817 140.932 102.901C140.667 105.08 140.464 107.265 140.235 109.45C139.646 113.12 138.1 116.365 135.854 119.3C134.782 120.7 133.362 121.457 131.637 121.714C131.23 121.774 130.778 121.843 130.45 122.062C127.796 123.828 124.735 125.026 122.762 127.754C122.249 128.463 121.27 128.825 120.536 129.387C118.163 131.208 117.059 133.781 116.414 136.584C116.273 137.196 116.059 137.643 115.566 138.005C112.544 140.216 109.753 142.635 108.202 146.177C107.589 147.578 106.247 147.337 105.094 147.509C103.897 147.688 103.798 146.709 103.476 145.968C102.194 143.006 100.196 140.63 97.502 138.875C96.5556 138.259 96.306 137.49 96.1804 136.411C95.7543 132.755 93.993 129.918 90.5618 128.334C90.0908 128.118 89.9279 127.837 89.8202 127.448C89.3627 125.799 88.0994 125.108 86.5803 124.899C85.8163 124.793 85.4037 124.502 84.9686 123.901C84.1882 122.823 83.1655 122.089 81.7542 121.856C79.507 121.484 77.4169 120.122 74.9843 120.926C74.3729 121.128 74.2906 120.521 74.1471 120.05C73.7135 118.615 73.6118 117.085 72.9062 115.729C72.6894 114.464 72.3993 113.214 72.2498 112.521C72.4696 113.197 72.6012 114.476 72.9211 115.717C72.809 116.833 73.1678 117.872 73.4025 118.936C73.5476 119.597 73.9617 120.383 72.9465 120.783L72.9435 120.78Z" fill="#FCC1A0"/>
<path d="M74.5386 97.4427C74.3308 100.683 74.1319 103.924 73.9107 107.164C73.8643 107.843 74.12 108.704 72.9673 108.81C71.8743 108.91 71.8729 108.059 71.6546 107.406C70.8592 105.024 70.0563 102.644 69.3132 100.246C69.0202 99.3026 68.5418 98.7943 67.5176 98.5581C65.9164 98.1903 64.3181 98.0452 62.6914 98.0348C62.1472 97.3515 60.6596 97.2603 61.0349 96.0642C61.3937 94.9235 62.7154 95.3929 63.59 95.1851C59.5966 88.5932 59.8956 82.0118 63.3448 75.3885C63.6408 74.8204 63.9354 74.2537 64.7039 74.8249C68.0484 77.6297 72.1629 78.6807 76.2266 79.7961C80.8091 81.0534 85.5141 81.7098 90.2117 82.3856C90.6947 83.0135 90.2805 83.6026 90.0787 84.1573C88.5268 88.4273 85.5201 91.4832 81.7973 93.9083C80.0316 95.058 78.0969 95.8654 76.0666 96.4275C75.4312 96.6025 74.9049 96.8895 74.5386 97.4427Z" fill="#1C2B2F"/>
<path d="M159.522 257.773C152.952 260.7 146.543 260.764 140.552 256.399C136.947 253.772 134.462 250.119 132.181 246.343C131.939 245.94 131.719 245.525 131.49 245.114C129.984 243.648 129.047 241.792 128.086 239.973C127.507 238.878 127.033 237.719 126.432 236.624C124.074 232.42 122.229 227.974 120.35 223.55C117.65 217.191 115.623 210.583 113.389 204.055C112.039 200.107 110.965 196.061 109.798 192.051C109.614 191.595 109.442 191.136 109.349 190.65C109.167 189.614 108.896 188.588 108.521 187.618C107.82 185.809 108.143 184.232 109.294 182.753C109.545 182.357 109.856 182.007 110.164 181.656C111.203 180.62 111.764 179.13 113.183 178.45C113.819 178.488 114.482 178.32 115.083 178.674C114.823 178.997 114.592 179.353 114.296 179.639C112.314 181.551 112.297 181.551 113.268 184.049C115.138 188.861 116.659 193.8 118.501 198.615C120.734 204.453 123.032 210.269 125.339 216.08C127.399 221.271 129.703 226.347 131.946 231.45C133.586 235.18 135.585 238.752 137.408 242.405C138.764 245.123 140.384 247.648 142.352 249.98C143.766 251.658 145.478 252.969 147.344 253.942C151.405 256.062 155.685 257.574 160.408 257.088C160.541 257.871 160.011 257.795 159.522 257.773Z" fill="#D2CABB"/>
<path d="M131.51 163.595C132.885 162.27 132.973 162.225 133.951 164.166C136.082 168.393 138.094 172.679 140.195 176.921C141.646 179.85 143.165 182.746 144.653 185.657C145.317 187.351 146.322 188.865 147.187 190.451C147.388 190.818 147.63 191.163 147.82 191.534C148.839 193.518 148.736 194.052 147.196 194.884C145.478 195.814 144.198 195.478 143.267 193.756C141.077 189.708 139.438 185.405 137.523 181.231C135.63 177.106 133.555 173.074 131.536 169.012C130.874 167.678 129.946 166.409 130.183 164.779C130.293 164.012 130.58 163.444 131.508 163.593L131.51 163.595Z" fill="#FDFDFD"/>
<path d="M131.509 163.595C130.944 163.853 130.566 164.318 130.185 164.782C127.969 166.286 126.109 168.212 124.131 169.988C121.02 172.781 117.862 175.535 115.084 178.676C114.444 178.93 113.806 178.909 113.167 178.674C112.514 178.202 112.421 177.445 112.215 176.753C111.349 173.853 110.636 170.909 109.784 168.005C109.628 166.92 108.98 165.957 108.995 164.828C108.728 162.971 108.183 161.174 107.831 159.335C107.495 157.703 107.037 156.091 106.882 154.431C106.783 153.376 106.448 152.253 107.28 151.299C107.781 151.582 108.15 151.634 108.183 150.873C108.204 150.38 108.011 149.829 108.468 149.417C108.347 152.13 109.195 154.642 109.971 157.193C111.475 162.14 113.408 166.923 115.243 171.746C115.971 173.658 116.156 173.753 117.745 172.389C120.915 169.669 124.073 166.933 127.235 164.203C128.065 163.487 128.906 162.786 129.715 162.046C130.304 161.508 130.857 161.364 131.451 162.009C131.825 162.523 131.813 163.052 131.512 163.593L131.509 163.595Z" fill="#E88D73"/>
<path d="M159.522 257.773C159.818 257.544 160.112 257.315 160.408 257.086C162.186 256.461 163.569 255.176 165.169 254.253C166.348 254.178 167.223 254.747 167.966 255.587C174.074 259.422 177.164 265.408 179.423 271.913C181.446 277.738 182.839 283.747 184.195 289.759C184.225 289.892 184.153 290.049 184.128 290.195C183.505 290.158 183.071 290.094 182.788 289.289C181.754 286.337 181.455 283.221 180.616 280.229C179.607 276.629 178.989 272.884 177.63 269.425C176.313 266.075 174.561 262.834 171.919 260.213C170.606 258.91 168.977 258.296 167.244 258.411C164.843 258.571 162.488 257.631 160.087 258.233C159.946 258.269 159.713 257.934 159.522 257.773Z" fill="#20292C"/>
<path d="M167.966 255.588C167.033 255.144 166.102 254.699 165.169 254.255C166.321 252.89 167.473 251.525 168.625 250.16C171.369 251.357 171.372 251.472 169.773 253.697C169.247 254.43 168.585 254.974 167.966 255.587V255.588Z" fill="#B3A892"/>
<path d="M157.092 208.548C157.542 208.503 157.663 208.841 157.822 209.071C160.492 212.963 162.802 217.061 164.762 221.355C164.92 221.702 165.373 222.191 164.887 222.466C164.319 222.787 164.119 222.132 163.919 221.756C161.663 217.501 159.421 213.237 157.182 208.973C157.119 208.853 157.122 208.699 157.092 208.548Z" fill="#B1ADA0"/>
<path d="M139.049 120.736C139.607 117.531 139.882 114.252 141.518 111.331C143.007 109.499 142.984 107.105 143.846 105.041C144.734 105.332 144.503 106.15 144.544 106.744C144.693 108.944 144.874 111.169 142.627 112.639C142.019 113.037 141.664 113.747 141.516 114.493C141.392 115.122 141.586 115.642 142.168 115.956C142.708 116.248 143.183 116.058 143.608 115.687C144.358 115.031 144.729 114.161 144.849 113.208C144.973 112.232 145.381 111.512 146.321 111.172C147.428 110.771 147.852 109.979 147.754 108.847C147.736 108.639 147.754 108.429 147.751 108.218C147.721 105.035 147.069 104.423 144.003 104.703C144.611 102.49 145.22 100.276 145.828 98.0631C147.224 99.2173 149.114 99.7481 149.983 101.581C151.032 103.792 151.787 106.08 151.593 108.526C151.233 113.045 149.594 116.994 145.357 119.146C144.23 119.718 142.72 120.374 141.16 119.793C140.304 119.473 139.857 120.633 139.046 120.739L139.049 120.736Z" fill="#F8BD9B"/>
<path d="M74.5388 97.4427C74.316 96.4664 74.8662 96.311 75.6915 96.0762C82.8814 94.0279 88.0171 89.7534 90.2119 82.3856C96.6318 83.1317 103.077 83.021 109.521 82.9762C116.509 82.9283 123.382 81.9266 130.207 80.5137C130.101 81.5334 129.995 82.5545 129.89 83.5727C125.508 84.2649 121.096 84.6223 116.668 84.8794C111.906 85.156 107.129 85.4206 102.385 85.0843C98.9956 84.8435 95.5823 85.2009 92.2153 84.5879C91.4947 84.4563 90.8952 84.4937 90.5184 85.4775C88.4626 90.8553 84.6651 94.5258 79.2693 96.5367C77.7443 97.1049 76.2118 97.6461 74.5388 97.4427Z" fill="#E39079"/>
<path d="M144.006 104.701C145.643 103.481 147.235 103.976 147.891 105.875C148.37 107.259 148.168 108.672 148.135 110.075C148.117 110.879 147.479 111.178 146.788 111.398C145.894 111.682 145.303 112.12 145.273 113.262C145.247 114.351 144.728 115.357 143.832 116.124C143.197 116.668 142.558 116.879 141.848 116.414C141.084 115.913 140.682 115.195 141.035 114.261C141.332 113.472 141.684 112.603 142.437 112.228C144.554 111.174 144.131 109.166 144.227 107.455C144.267 106.721 144.384 105.773 143.844 105.041C143.898 104.927 143.95 104.814 144.004 104.7L144.006 104.701Z" fill="#E0816D"/>
<path d="M133.054 92.5477C132.136 91.1409 132.333 89.9448 132.196 88.8563C132.021 87.4674 132.057 86.0471 132.07 84.6417C132.074 84.1827 131.822 83.3873 132.522 83.3484C133.305 83.305 133.031 84.1199 133.039 84.5654C133.075 87.0652 133.055 89.565 133.055 92.5463L133.054 92.5477Z" fill="#CBABAB"/>
<path d="M129.639 88.0161C129.608 86.8678 129.359 85.7046 129.853 84.5893C129.907 85.739 129.95 86.8888 129.639 88.0161Z" fill="#E39079"/>
<path d="M65.9568 132.08C66.066 131.621 66.1706 131.159 66.5459 130.824C66.5818 131.029 66.5459 131.334 66.6685 131.42C67.1036 131.733 67.1724 131.257 67.274 131.029C68.1292 129.115 69.1788 127.315 70.3405 125.573C71.8804 123.263 74.0767 122.178 76.7888 122.036C77.1237 122.018 77.5977 121.856 77.7681 122.294C77.9326 122.716 77.508 122.948 77.2478 123.167C74.7405 125.292 73.2425 128.106 71.8909 131.014C71.6905 131.444 71.0581 132.039 71.6352 132.385C72.2781 132.769 72.613 131.96 72.8238 131.503C73.8659 129.255 75.3311 127.285 76.7933 125.314C78.3916 123.161 80.0646 122.719 82.3536 123.762C83.8128 124.428 83.892 124.972 82.6122 125.92C80.3352 127.603 78.5844 129.714 77.3779 132.271C77.2374 132.57 76.8382 132.957 77.2568 133.243C77.7292 133.563 77.9909 133.105 78.2346 132.761C79.927 130.378 81.4476 127.847 84.0864 126.309C85.3871 125.551 88.2398 126.407 88.8169 127.798C89.1443 128.586 88.5313 128.793 88.035 129.079C85.894 130.311 84.3451 132.135 82.983 134.143C82.8066 134.403 82.6033 134.656 82.8574 135.13C84.0027 134.698 84.7443 133.741 85.3901 132.832C86.4487 131.34 88.1292 130.76 89.4837 129.714C89.85 129.432 90.4032 129.511 90.8308 129.78C93.1273 131.225 94.5745 133.238 94.9244 135.968C95.056 136.993 94.6538 137.362 93.6595 136.924C93.516 136.861 93.368 136.804 93.2215 136.749C92.5726 136.507 91.6531 136.185 91.4244 136.93C91.1762 137.737 92.2646 137.565 92.7565 137.797C96.1862 139.412 99.5308 141.116 101.576 144.543C102.419 145.956 103.002 147.449 103.167 149.094C103.832 150.656 103.466 152.196 102.978 153.696C101.096 159.474 99.1361 165.226 96.8904 170.878C95.5852 174.164 95.3684 174.309 92.7161 171.99C89.0098 168.75 85.1345 165.703 81.5746 162.294C81.2009 161.935 80.7374 161.648 80.561 161.118C80.4817 160.802 80.4638 160.452 80.6253 160.194C81.778 158.358 80.9213 157.132 79.5308 155.888C77.502 154.073 75.352 152.391 73.4592 150.423C70.8503 147.712 67.9304 145.292 65.8163 142.118C63.8009 139.093 63.8293 135.024 65.9553 132.078L65.9568 132.08Z" fill="#FCC1A0"/>
<path d="M80.7823 161.103C84.4094 164.247 88.038 167.391 91.6636 170.538C92.5711 171.326 93.4756 172.118 94.3667 172.924C95.0291 173.522 95.3475 173.389 95.7004 172.552C97.6709 167.881 99.4575 163.146 100.969 158.307C101.621 156.221 102.469 154.203 102.958 152.059C103.185 151.061 103.058 150.078 103.167 149.095C103.378 149.421 103.588 149.747 103.799 150.073C104.813 150.925 104.541 152.066 104.435 153.134C104.209 155.426 103.615 157.655 103.17 159.908C103.05 160.316 102.952 160.73 102.904 161.153C102.515 162.599 102.412 164.111 101.905 165.53C101.011 169.36 99.9599 173.146 98.7429 176.886C98.559 177.451 98.6337 178.03 98.6263 178.604C98.4962 179.235 98.5246 179.962 97.6963 180.179C96.7305 180.167 96.2087 179.449 95.7063 178.81C93.4562 175.956 90.6379 173.7 87.9393 171.32C86.2558 169.835 84.7637 168.144 82.9845 166.76C82.4089 166.313 81.8752 165.812 81.2472 165.429C80.6253 164.77 79.933 164.179 79.341 163.487C79.2543 162.349 79.4965 161.409 80.7837 161.101L80.7823 161.103Z" fill="#E39175"/>
<path d="M102.787 160.096C103.152 157.997 103.491 155.892 103.892 153.8C104.133 152.542 104.115 151.31 103.799 150.073C104.684 149.686 105.604 149.998 106.505 149.952C107.54 149.9 107.077 150.813 107.28 151.299C106.852 154.101 107.941 156.725 108.243 159.44C108.418 160.099 108.419 160.63 107.482 160.443C106.079 160.165 104.678 160.152 103.276 160.454C103.019 160.509 102.741 160.497 102.789 160.095L102.787 160.096Z" fill="#1D292E"/>
<path d="M81.4071 165.163C83.3193 166.273 84.7995 167.901 86.4216 169.356C90.2237 172.766 94.0197 176.185 97.451 179.98C99.112 180.901 99.441 181.582 98.7741 183.442C97.3075 187.537 95.8737 191.646 94.3277 195.713C92.876 199.533 91.3854 203.338 89.8992 207.144C88.2217 211.438 86.3977 215.672 84.6275 219.929C82.5957 224.815 80.3725 229.623 78.0237 234.356C75.9305 238.574 73.7746 242.771 71.3705 246.836C68.9948 250.853 65.4693 253.392 61.3742 255.378C57.7486 257.136 53.9481 257.441 50.0294 257.17C48.3445 256.867 47.0407 255.853 45.734 254.847C44.8997 254.026 44.0251 253.24 43.288 252.328C42.9457 251.903 42.5315 251.477 42.6392 250.841C41.4072 249.548 41.1799 247.622 39.8433 246.395C39.8822 244.244 38.9642 242.261 38.7489 240.15C38.4319 237.045 37.9012 233.969 37.5573 230.862C36.9264 225.151 36.892 219.414 36.3941 213.703C36.3852 213.599 36.3792 213.494 36.3822 213.389C36.5661 206.842 35.6914 200.3 36.1101 193.765C36.5526 186.851 36.6812 179.93 37.4945 173.017C38.4604 164.816 41.147 157.422 45.589 150.616C47.9602 146.983 51.1134 143.958 54.1738 140.884C57.4631 137.582 61.3877 135.098 65.0597 132.292C65.2824 132.122 65.6517 132.145 65.9537 132.08C65.6427 133.168 65.3572 134.264 65.0178 135.344C64.0684 138.368 65.2241 140.898 67.0287 143.154C68.3982 144.866 69.977 146.422 71.5589 147.947C74.6044 150.882 77.6813 153.787 80.8255 156.614C81.7838 157.475 81.9573 158.253 81.4071 159.347C81.1305 159.899 80.9825 160.515 80.7776 161.103C80.2155 161.834 79.4739 162.478 79.598 163.541C78.5843 163.447 77.9833 163.843 77.5213 164.821C74.3592 171.529 70.6573 177.967 67.5251 184.692C67.2769 185.225 67.1259 186.065 66.1735 185.891C65.3034 183.258 64.5588 180.588 63.7903 177.925C61.5791 170.268 59.0643 162.716 56.0248 155.345C55.5149 154.109 55.207 152.797 54.5611 151.616C59.1944 162.985 62.8514 174.678 66.175 186.482C65.9986 188.288 64.508 189.457 63.9383 191.081C63.7858 191.517 63.442 191.887 63.3418 192.356C63.1788 193.119 63.2057 193.833 63.9667 194.297C64.7621 194.781 65.565 195.121 66.4352 194.43C67.1065 193.896 67.6133 193.235 67.9856 192.473C69.5704 189.221 70.8891 185.849 72.444 182.583C74.4937 178.281 76.4777 173.942 78.8116 169.788C79.6757 168.248 80.2902 166.564 81.4011 165.165L81.4071 165.163Z" fill="#EBE9DF"/>
<path d="M49.8426 256.84C52.0852 256.639 54.3742 257.139 56.5765 256.58C63.9055 254.721 69.4448 250.623 72.743 243.65C74.2516 240.459 76.1773 237.463 77.6604 234.262C80.9152 227.24 84.1432 220.204 87.0676 213.03C89.8171 206.287 92.4051 199.486 95.0215 192.694C96.1279 189.819 97.0115 186.856 98.1881 184.012C98.8594 182.39 98.8475 181.116 97.451 179.978C98.3257 179.908 97.9474 179.066 98.2644 178.654C99.5995 179.099 100.014 180.44 100.87 181.351C101.328 181.835 101.681 182.412 102.057 182.964C102.333 183.418 102.636 183.853 102.905 184.311C103.795 185.618 103.088 186.899 102.847 188.189C102.593 189.267 102.199 190.302 101.847 191.348C100.132 197.235 98.2255 203.057 96.2849 208.872C93.1287 218.33 89.1921 227.454 84.8937 236.429C83.4016 239.544 81.6658 242.539 79.8746 245.496C78.7757 246.754 78.384 248.536 76.9024 249.511C76.729 249.734 76.557 249.955 76.3836 250.178C76.1997 251.184 75.6241 251.891 74.7285 252.354C72.9135 254.161 71.1941 256.077 68.926 257.36C63.8173 260.25 58.5321 260.561 53.0795 258.45C52.4485 258.206 51.8191 257.958 51.1897 257.711C50.5572 257.704 49.9323 257.684 49.8396 256.84H49.8426Z" fill="#D1CABB"/>
<path d="M76.9038 249.514C77.7755 248.156 78.6471 246.799 79.5187 245.441C80.0854 245.239 80.655 245.302 81.2231 245.425C83.7828 245.981 86.3827 246.289 88.9663 246.704C90.3851 247.021 91.8548 246.902 93.2751 247.198C95.8961 247.142 98.4945 247.524 101.12 247.498C108.929 247.427 116.697 246.873 124.432 245.812C125.197 245.707 125.988 245.453 126.691 246.033C126.94 246.078 127.191 246.123 127.644 246.204C124.414 247.989 120.99 248.757 117.82 250.154C114.63 251.557 111.339 252.722 108.102 254.009C104.941 255.265 101.818 256.701 98.4631 257.484C96.1801 258.018 95.9319 258.81 97.2267 260.696C98.6291 262.739 100.513 264.347 102.223 266.109C102.723 266.624 103.297 267.09 103.406 268.4C95.0752 260.951 85.5694 255.835 76.9038 249.514Z" fill="#1C292E"/>
<path d="M126.692 246.035C121.41 246.672 116.141 247.415 110.82 247.681C104.922 247.977 99.0267 248.149 93.1345 247.585C93.3618 246.689 94.1931 246.86 94.7776 246.743C103.576 245.007 112.152 242.478 120.561 239.401C122.545 238.674 124.71 238.265 126.415 236.861C126.523 236.731 126.658 236.639 126.816 236.583C128.175 239.534 129.933 242.268 131.488 245.114C129.887 245.407 128.241 245.471 126.692 246.033V246.035Z" fill="#B3AB9B"/>
<path d="M74.7317 252.356C75.2834 251.631 75.8351 250.906 76.3868 250.179C78.4949 252.215 80.1574 254.626 82.0083 256.877C84.6606 260.104 87.3653 263.288 90.0236 266.51C90.5857 267.19 91.0492 267.953 91.5471 268.685C91.9926 269.34 91.7564 269.783 91.0582 269.994C90.1043 270.281 90.2209 270.829 90.5259 271.575C91.3527 273.592 92.637 275.367 93.6791 277.427C92.8702 277.471 92.6789 276.958 92.3933 276.554C88.1173 270.512 83.8667 264.453 79.5429 258.445C78.0329 256.348 76.3404 254.382 74.7317 252.356Z" fill="#1C292E"/>
<path d="M49.8427 256.84C50.2928 257.13 50.7428 257.421 51.1928 257.711C49.5975 257.824 48.0008 257.904 46.41 258.06C45.1182 258.187 43.825 258.347 42.5511 258.59C38.7297 259.323 36.3794 261.757 34.959 265.254C34.6869 265.925 34.3939 266.628 33.9409 267.177C33.0782 268.223 32.8554 269.443 32.4652 270.693C30.6367 276.557 29.2433 282.523 27.8812 288.501C27.5254 290.061 27.3445 290.16 26.2949 289.835C27.2503 283.834 28.9054 278.006 30.8206 272.256C32.1303 268.328 33.8825 264.596 36.4003 261.252C38.1989 258.863 40.5716 257.179 42.9982 255.537C43.8414 254.908 44.589 254.008 45.8418 254.512C47.1456 255.339 48.3073 256.411 49.8427 256.838V256.84Z" fill="#212B2D"/>
<path d="M74.1841 265.913C74.7254 266.305 75.3309 266.64 75.8078 267.107C78.9909 270.221 82.2726 273.259 85.061 276.729C87.8015 280.139 90.2624 283.775 92.8385 287.317C92.9566 287.48 93.0254 287.691 93.0792 287.89C93.2078 288.373 93.6997 289.017 93.1674 289.319C92.5978 289.642 92.3586 288.893 92.0595 288.489C88.6791 283.922 85.656 279.079 81.7867 274.889C79.3078 272.203 76.6989 269.636 74.1572 267.008C73.921 266.763 73.5143 266.558 73.7207 266.111C73.7655 266.012 73.9838 265.994 74.1841 265.915V265.913Z" fill="#1E292E"/>
<path d="M45.8417 254.513C44.8938 254.856 43.9459 255.197 42.998 255.539C43.4346 254.711 42.6466 254.442 42.2624 254.041C40.5804 252.29 40.5774 252.205 42.6422 250.843C43.5078 252.241 44.7742 253.292 45.8417 254.513Z" fill="#AFA796"/>
<path d="M110.037 110.839C110.415 112.458 110.823 114.058 111.155 115.672C111.695 118.295 112.813 120.718 113.651 123.238C114.335 125.298 113.597 127.297 111.897 128.472C110.125 129.696 107.446 129.749 105.884 128.571C105.433 128.231 104.831 127.89 105.19 127.192C105.489 126.611 106.058 126.739 106.583 126.881C106.834 126.948 107.092 127.023 107.349 127.035C108.605 127.095 109.949 127.276 110.732 125.981C111.447 124.802 110.958 123.65 110.349 122.578C108.458 119.249 107.85 115.77 109.049 112.059C109.21 111.558 109.325 111.042 110.037 110.837V110.839Z" fill="#DF876D"/>
<path d="M90.9788 102.698C89.409 102.698 87.8376 102.752 86.2708 102.673C85.5905 102.638 84.6127 102.629 84.6411 101.613C84.665 100.787 85.4814 100.672 86.1676 100.547C90.0758 99.8304 93.9885 99.1397 97.8174 98.0557C98.4708 97.8703 99.1182 97.6431 99.7835 97.5175C100.811 97.3246 101.672 97.652 102.155 98.6179C102.673 99.6555 102.156 100.472 101.373 101.08C100.172 102.012 98.6861 102.215 97.2418 102.432C95.1681 102.743 93.0779 102.891 90.9773 102.698H90.9788Z" fill="#1C2B30"/>
<path d="M62.1922 107.449C62.1818 106.798 62.2221 105.896 62.6453 104.994C63.4855 103.2 65.006 102.613 66.7164 103.517C67.3115 103.831 67.1545 104.211 66.9885 104.691C66.6297 105.723 66.2769 106.769 66.3112 107.883C66.3561 109.348 66.7254 110.637 68.1069 111.477C68.9052 111.963 69.6259 112.599 70.0624 113.463C70.656 114.638 70.5588 115.693 69.4106 116.489C68.3027 117.256 67.3309 116.876 66.4682 116.037C65.5592 115.151 65.3589 113.934 65.0868 112.775C64.9597 112.238 64.8191 111.842 64.2914 111.538C62.1608 110.313 62.1743 110.29 62.1937 107.449H62.1922Z" fill="#E2836D"/>
<path d="M131.811 103.677C128.425 103.389 124.997 103.393 121.682 102.481C120.713 102.215 119.792 101.874 119.024 101.183C118.27 100.506 118.012 99.7197 118.438 98.7913C118.85 97.8927 119.652 97.6894 120.55 97.7955C120.963 97.8434 121.379 97.942 121.773 98.0766C125.341 99.2936 128.954 100.357 132.59 101.349C133.043 101.473 133.474 101.68 133.911 101.855C134.376 102.04 134.754 102.302 134.707 102.882C134.657 103.502 134.168 103.628 133.697 103.667C133.072 103.718 132.439 103.679 131.811 103.679V103.677Z" fill="#1C2B2E"/>
<path d="M101.099 139.821C101.543 138.642 102.579 138.353 103.561 138.082C106.13 137.374 108.61 137.589 110.935 138.98C111.411 139.264 111.868 139.625 111.468 140.222C111.062 140.824 110.659 140.316 110.279 140.089C107.745 138.565 105.116 138.728 102.454 139.672C102.066 139.809 101.719 140.089 101.099 139.823V139.821Z" fill="#CE7C62"/>
<path d="M72.9165 115.713C72.2273 114.458 72.2019 113.059 72.0464 111.688C72.5368 112.99 73.0003 114.297 72.9031 115.725L72.918 115.713H72.9165Z" fill="#D6856A"/>
<path d="M71.9013 95.8773C69.6691 96.0478 67.6058 95.2838 65.7579 93.8933C65.4708 93.6766 64.9281 93.3805 65.2675 92.9096C65.5321 92.5403 65.9328 92.9021 66.2588 93.0307C68.5582 93.9412 70.904 94.5422 73.4158 94.3194C73.9107 94.2761 74.7046 94.0219 74.7464 94.9369C74.7868 95.8175 74.0976 95.8773 73.4322 95.8773C72.9613 95.8773 72.4903 95.8773 71.9013 95.8773Z" fill="#374348"/>
<path d="M88.9412 247.075C85.7776 246.667 82.605 246.304 79.5206 245.441C83.1328 239.392 86.2217 233.066 89.031 226.621C91.3229 221.365 93.4475 216.02 95.3178 210.601C97.4932 204.293 99.6148 197.957 101.374 191.511C101.397 191.428 101.52 191.369 101.594 191.301C102.294 191.801 102.261 192.544 102.276 193.286C102.448 202.153 102.304 211.021 102.351 219.89C102.358 221.288 103.044 221.989 104.408 221.993C105.721 221.995 107.032 221.993 108.345 221.992C109.185 221.99 109.604 221.587 109.612 220.745C109.617 220.273 109.624 219.8 109.624 219.328C109.624 210.931 109.618 202.533 109.635 194.137C109.636 193.376 109.426 192.54 110.106 191.911C111.084 193.615 111.182 195.591 111.813 197.41C112.905 200.552 113.763 203.774 114.82 206.93C116.242 211.17 117.674 215.412 119.259 219.592C121.087 224.418 123.049 229.197 125.471 233.77C125.957 234.688 126.37 235.645 126.817 236.584L126.742 236.65C126.426 237.013 126.041 237.255 125.586 237.426C116.128 240.963 106.545 244.082 96.6485 246.172C94.1008 246.71 91.5771 247.343 88.9412 247.075Z" fill="#B2A898"/>
<path d="M102.533 188.149C102.655 186.881 103.455 185.621 102.569 184.344C102.298 183.172 102.33 181.989 102.333 180.79C102.346 175.246 102.461 169.699 102.258 164.157C102.22 163.122 102.781 162.14 102.555 161.085C102.493 160.723 102.464 160.37 102.786 160.098C104.387 159.688 106.012 159.569 107.594 160.071C108.433 160.337 108.074 159.693 108.24 159.443C108.678 161.236 109.2 163.009 109.386 164.854C109.204 165.314 109.252 165.776 109.374 166.24C110.123 169.076 109.941 171.929 109.639 174.807C109.47 176.412 110.007 178.018 109.883 179.651C109.804 180.691 109.766 181.736 109.718 182.78C108.116 184.526 108.464 186.443 109.183 188.422C109.445 189.143 109.563 189.918 109.747 190.667C109.751 200.092 109.754 209.515 109.747 218.94C109.744 222.55 109.986 221.94 106.764 221.992C105.978 222.005 105.191 222.011 104.405 221.987C102.768 221.938 102.377 221.569 102.362 219.906C102.333 216.288 102.361 212.67 102.35 209.053C102.334 203.13 102.403 197.206 102.304 191.283C102.286 190.232 102.626 189.209 102.53 188.153L102.533 188.149Z" fill="#384449"/>
<path d="M102.533 188.149C103.029 188.627 102.804 189.24 102.805 189.79C102.821 199.814 102.842 209.835 102.796 219.858C102.79 221.14 103.103 221.664 104.45 221.548C105.7 221.439 106.987 221.392 108.22 221.572C109.422 221.745 109.451 221.214 109.448 220.307C109.424 211.229 109.421 202.15 109.443 193.072C109.445 192.271 109.119 191.396 109.748 190.664C109.866 191.079 109.985 191.496 110.103 191.912C110.109 201.409 110.116 210.907 110.118 220.404C110.118 222.448 110.109 222.439 107.996 222.43C106.526 222.424 105.049 222.357 103.59 222.481C102.186 222.6 101.794 222.089 101.802 220.717C101.842 212.793 101.811 204.869 101.778 196.945C101.77 195.064 101.657 193.181 101.593 191.301C101.667 190.179 102.201 189.194 102.531 188.147L102.533 188.149Z" fill="#1D2426"/>
<path d="M110.123 167.947C111.139 171.522 112.152 175.098 113.167 178.673C112.237 179.725 111.306 180.778 110.376 181.831C109.854 181.612 109.771 181.17 109.762 180.672C109.682 176.707 109.723 172.743 109.772 168.778C109.777 168.458 109.842 168.153 110.125 167.946L110.123 167.947Z" fill="#4B4F4E"/>
<path d="M110.124 167.947C110.107 172.124 110.094 176.3 110.068 180.478C110.065 180.96 110.14 181.41 110.376 181.832C110.158 182.148 109.94 182.462 109.721 182.777C109.111 181.986 109.478 181.089 109.427 180.231C109.191 176.323 109.451 172.417 109.442 168.511C109.439 167.291 108.676 166.081 109.391 164.852C109.636 165.884 109.88 166.915 110.125 167.949L110.124 167.947Z" fill="#1C2528"/>
<path d="M81.4073 165.163C81.0575 166.875 80.0662 168.286 79.2514 169.78C77.3317 173.295 75.6287 176.916 73.8899 180.524C71.9538 184.543 70.2 188.639 68.367 192.703C68.0755 193.35 67.5672 193.932 67.0603 194.446C65.8747 195.648 64.9373 195.701 63.4796 194.536C62.3553 193.637 62.7126 192.473 63.2732 191.413C64.1404 189.771 65.0674 188.161 65.9689 186.539C65.8418 186.214 66.0123 186.047 66.2874 185.933C68.1772 182.269 70.07 178.607 71.9538 174.94C73.8002 171.347 75.7409 167.796 77.4288 164.13C78.0702 162.735 78.6324 162.832 79.6027 163.543C80.4684 163.789 80.8541 164.57 81.4073 165.165V165.163Z" fill="#FDFDFD"/>
<path d="M101.818 183.188C100.634 181.678 99.4498 180.167 98.2657 178.656C97.7917 176.951 98.8114 175.539 99.2091 174.013C99.9522 171.166 100.776 168.339 101.565 165.504C102.213 166.16 102.219 167.014 102.255 167.842C102.447 172.272 102.32 176.705 102.335 181.137C102.337 181.846 102.38 182.605 101.818 183.19V183.188Z" fill="#454C51"/>
<path d="M101.818 183.188C101.86 178.319 101.982 173.449 101.761 168.578C101.715 167.551 101.513 166.533 101.565 165.503C101.896 164.03 102.226 162.556 102.557 161.083C103.15 162.626 102.739 164.244 102.755 165.799C102.811 171.323 103.086 176.858 102.61 182.379C102.554 183.036 103.482 183.711 102.569 184.344C102.319 183.96 102.068 183.574 101.818 183.19V183.188Z" fill="#22282B"/>
<path d="M66.2872 185.932C66.181 186.133 66.0749 186.335 65.9687 186.537C64.7263 184.155 64.2718 181.509 63.5511 178.966C61.2681 170.915 58.4708 163.043 55.5344 155.216C54.9737 153.723 54.5372 152.183 54.1963 150.604C55.3774 151.961 55.7751 153.697 56.4449 155.281C60.2754 164.335 63.0293 173.756 65.8042 183.167C66.0674 184.06 66.1302 185.011 66.2872 185.933V185.932Z" fill="#ACA99C"/>
<path d="M53.5611 208.814C51.1525 213.51 49.0115 218.366 45.7522 222.597C47.651 217.617 50.1179 212.951 53.5611 208.814Z" fill="#B6B2A2"/>
<path d="M88.9408 247.075C94.5609 246.464 99.9926 244.966 105.448 243.575C112.696 241.727 119.652 238.982 126.743 236.65C126.948 237.432 126.395 237.658 125.84 237.87C119.194 240.409 112.51 242.799 105.601 244.572C101.458 245.635 97.3119 246.664 93.136 247.585C91.7486 247.326 90.3088 247.509 88.9423 247.075H88.9408Z" fill="#756C5C"/>
<path d="M105.806 161.372C106.588 161.352 106.927 161.745 106.909 162.514C106.891 163.273 106.371 163.27 105.831 163.266C105.066 163.258 104.698 162.873 104.714 162.11C104.731 161.349 105.275 161.37 105.806 161.372Z" fill="#151B21"/>
</g>
</g>
<defs>
<filter id="filter0_d_112_140" x="16" y="31" width="168.203" height="261.469" filterUnits="userSpaceOnUse" color-interpolation-filters="sRGB">
<feFlood flood-opacity="0" result="BackgroundImageFix"/>
<feColorMatrix in="SourceAlpha" type="matrix" values="0 0 0 0 0 0 0 0 0 0 0 0 0 0 0 0 0 0 127 0" result="hardAlpha"/>
<feOffset dx="-10" dy="2"/>
<feComposite in2="hardAlpha" operator="out"/>
<feColorMatrix type="matrix" values="0 0 0 0 0 0 0 0 0 0 0 0 0 0 0 0 0 0 0.03 0"/>
<feBlend mode="normal" in2="BackgroundImageFix" result="effect1_dropShadow_112_140"/>
<feBlend mode="normal" in="SourceGraphic" in2="effect1_dropShadow_112_140" result="shape"/>
</filter>
<clipPath id="clip0_112_140">
<rect width="210" height="290" fill="white"/>
</clipPath>
</defs>
</svg>
