<svg width="210" height="290" viewBox="0 0 210 290" fill="none" xmlns="http://www.w3.org/2000/svg">
<g clip-path="url(#clip0_112_140)">
<g filter="url(#filter0_d_112_140)">
<path d="M155.479 92.3902C157.101 95.5743 158.24 98.9477 159.169 102.377C161.516 111.039 163.758 119.732 165.195 128.601C166.2 134.801 166.632 141.057 166.707 147.337C166.709 147.481 166.644 147.627 166.611 147.772C165.447 147.412 164.877 147.656 164.454 148.836C164.049 149.965 163.8 151.152 163.385 152.277C161.479 157.446 159.588 162.621 157.592 167.756C156.449 170.696 155.18 173.592 153.853 176.455C152.567 179.229 151.154 181.945 149.757 184.666C148.955 186.226 148.155 187.797 147.214 189.273C145.437 192.058 143.649 194.845 141.696 197.507C139.984 199.84 138.151 202.108 136.167 204.213C133.834 206.688 131.279 208.953 128.83 211.319C128.583 211.556 128.16 211.784 128.484 212.324C131.894 210.084 134.926 207.474 137.788 204.7C140.518 202.054 143.084 199.222 145.564 196.336C147.678 193.876 149.734 191.331 151.515 188.627C153.883 185.034 156.005 181.276 158.149 177.541C160.897 172.755 163.312 167.802 165.367 162.675C166.128 160.776 166.993 158.919 167.81 157.043C168.333 157.833 168.962 158.574 169.361 159.422C171.698 164.401 173.118 169.587 172.575 175.153C172.33 177.662 171.754 180.104 170.777 182.434C170.548 182.982 170.187 183.475 169.887 183.993C169.261 183.928 168.921 184.246 168.557 184.749C167.211 186.61 165.812 188.435 164.39 190.239C163.093 191.886 161.751 193.498 160.41 195.11C158.813 197.03 157.277 199.009 155.569 200.826C153.307 203.233 150.964 205.568 148.298 207.554C145.095 209.941 141.935 212.386 138.748 214.795C137.695 215.592 136.616 216.356 135.549 217.135C135.587 217.238 135.625 217.34 135.662 217.443C136.017 217.402 136.398 217.43 136.723 217.31C138.13 216.789 139.553 216.294 140.912 215.663C144.143 214.166 147.181 212.341 150.146 210.355C153.312 208.234 156.311 205.91 159.086 203.328C161.467 201.113 163.674 198.7 165.857 196.284C168.176 193.714 170.117 190.858 171.752 187.801C172.718 189.945 173.761 192.059 174.637 194.24C177.79 202.086 180.153 210.166 181.483 218.525C182.529 225.093 182.962 231.694 182.174 238.332C182.007 238.491 181.686 238.661 181.696 238.807C181.81 240.464 181.054 241.933 180.718 243.488C180.119 246.262 178.743 248.59 176.575 250.471C173.78 252.897 171.043 255.39 168.288 257.863C167.022 259 165.848 260.253 164.504 261.288C159.911 264.826 155.306 268.351 150.618 271.76C147.383 274.113 144.044 276.33 140.681 278.497C135.163 282.051 129.569 285.493 123.497 288.043C121.439 288.908 119.457 290.048 117.165 290.297C117.011 290.314 116.891 290.649 116.755 290.836H89.5924C89.368 290.615 89.1828 290.301 88.9135 290.188C86.9875 289.376 85.008 288.682 83.116 287.8C80.4565 286.561 77.8333 285.238 75.244 283.857C73.9416 283.163 72.7491 282.263 71.5071 281.456C71.7032 280.954 71.8896 280.449 72.0979 279.953C72.6875 278.547 73.2858 277.146 73.8812 275.743C73.9767 275.631 74.1113 275.534 74.1625 275.404C76.0856 270.562 78.0082 265.72 79.9158 260.872C82.2082 255.045 84.4259 249.188 86.7891 243.389C89.3599 237.08 92.0522 230.819 94.0104 224.283C94.611 222.278 95.02 220.212 95.4348 218.158C95.6839 216.923 95.2018 216.381 93.9966 216.291C93.6963 216.268 93.3972 216.238 93.0975 216.211C93.7418 214.208 94.3579 212.196 95.0378 210.206C95.6361 208.455 96.9276 207.409 98.662 206.859C100.769 206.193 102.878 205.535 104.976 204.841C108.035 203.828 110.784 202.3 112.878 199.79C114.547 197.79 115.036 195.565 113.106 193.401C113.014 193.299 112.986 193.141 112.929 193.013C113.023 192.861 113.096 192.731 113.18 192.609C114.617 190.524 114.239 188.726 112.08 187.411C111.617 187.129 111.143 186.867 110.882 186.716V181.47C111.224 181.334 111.674 181.135 112.137 180.97C113.32 180.549 114.534 180.203 115.692 179.72C119.362 178.192 123.063 176.692 125.512 173.292C125.99 173.017 126.481 172.764 126.943 172.465C131.685 169.388 135.563 165.427 138.751 160.786C141.575 156.675 143.769 152.22 145.757 147.657C146.014 147.067 146.385 146.526 146.702 145.963C147.988 146.049 147.945 144.978 148.117 144.219C148.854 140.965 149.557 137.701 150.212 134.429C150.681 132.087 151.098 129.731 151.458 127.37C151.825 124.96 152.104 122.535 152.402 120.115C152.707 117.646 152.991 115.175 153.277 112.704C153.404 111.615 153.52 110.525 153.631 109.435C153.819 107.603 154.031 105.773 154.173 103.938C154.318 102.047 154.377 100.15 154.503 98.2574C154.565 97.3145 154.644 96.3676 154.802 95.4374C154.977 94.4134 155.251 93.4067 155.481 92.3925L155.479 92.3902ZM126.095 213.452C126.197 213.57 126.299 213.689 126.401 213.807C126.897 213.446 127.625 213.341 127.833 212.661C127.744 212.554 127.656 212.448 127.567 212.342C127.076 212.712 126.585 213.082 126.094 213.452H126.095Z" fill="#714C40"/>
<path d="M93.0958 216.21C93.3955 216.237 93.6952 216.268 93.9955 216.29C95.2007 216.381 95.6828 216.922 95.4337 218.157C95.0189 220.212 94.6099 222.278 94.0093 224.282C92.0511 230.818 89.3588 237.08 86.788 243.389C84.4248 249.187 82.2077 255.044 79.9147 260.871C78.0071 265.72 76.0845 270.562 74.1614 275.404C74.1096 275.533 73.9756 275.63 73.8801 275.742C72.5915 275.469 72.5794 275.472 71.9949 276.544C71.8511 276.808 71.7182 277.08 71.5951 277.355C70.3698 280.093 69.1301 282.824 67.9307 285.573C67.1713 287.313 66.4741 289.08 65.7487 290.835H18.3633C18.4858 288.84 18.5502 286.839 18.7412 284.85C19.8003 273.792 21.7338 262.873 23.9158 251.988C25.4149 244.509 26.7628 237 28.1929 229.508C28.3804 228.525 28.6566 227.56 28.8913 226.586C29.535 227.639 30.2512 228.654 30.8104 229.75C32.9043 233.851 34.9045 238 37.0302 242.085C37.8269 243.617 38.8687 245.022 39.7983 246.484C39.7241 246.721 39.6758 246.971 39.5717 247.194C38.0461 250.462 36.5395 253.738 34.9747 256.987C32.8215 261.459 30.6234 265.909 28.4449 270.369C28.3568 270.549 28.2222 270.724 28.1946 270.913C28.1279 271.372 28.1112 271.839 28.0773 272.262C28.9143 272.52 29.2612 272.291 29.5465 271.664C30.75 269.02 31.9902 266.392 33.2552 263.776C35.3067 259.534 37.3954 255.309 39.4526 251.069C40.1084 249.718 40.7268 248.348 41.3389 246.977C41.7738 246.001 41.6536 245.837 40.4231 245.573C40.8494 244.897 41.2831 244.225 41.7008 243.544C44.2641 239.365 46.8431 235.195 49.3777 230.999C51.0333 228.259 52.6602 225.5 54.2301 222.71C55.7281 220.048 57.1691 217.353 58.5739 214.64C60.1168 211.662 61.6165 208.66 63.08 205.643C63.7071 204.349 64.2317 204.215 65.3328 205.132C66.1255 205.792 67.0102 206.342 67.8542 206.94C68.3955 207.558 68.9754 208.109 69.8705 208.124C70.2001 208.539 70.4504 209.079 70.8737 209.343C72.1416 210.135 73.4469 210.881 74.7913 211.534C80.3243 214.224 86.0896 216.088 92.3036 216.283C92.5677 216.259 92.8317 216.234 93.0958 216.21Z" fill="#583320"/>
<path d="M116.755 290.836C116.891 290.649 117.01 290.314 117.164 290.297C119.456 290.047 121.438 288.908 123.497 288.043C129.568 285.493 135.163 282.051 140.68 278.497C144.044 276.33 147.383 274.113 150.617 271.76C155.305 268.351 159.911 264.825 164.504 261.288C165.848 260.253 167.022 258.999 168.288 257.862C171.042 255.389 173.779 252.896 176.575 250.471C178.743 248.59 180.119 246.262 180.718 243.488C181.054 241.933 181.809 240.463 181.695 238.807C181.685 238.661 182.006 238.491 182.174 238.332C182.747 240.975 183.267 243.632 183.904 246.26C185.748 253.879 186.917 261.614 187.994 269.367C188.725 274.636 189.484 279.901 190.225 285.168C190.49 287.057 190.742 288.947 191 290.837H154.48C154.57 289.895 154.673 288.955 154.742 288.012C154.774 287.564 154.766 287.109 154.732 286.662C154.666 285.819 154.507 284.979 154.494 284.136C154.458 281.928 154.517 279.717 154.463 277.509C154.442 276.64 154.224 275.776 154.093 274.894C152.931 274.923 152.951 275.61 152.976 276.264C153.066 278.662 153.212 281.058 153.262 283.456C153.313 285.915 153.273 288.376 153.274 290.837H116.754L116.755 290.836Z" fill="#583320"/>
<path d="M71.506 281.455C72.748 282.263 73.9411 283.162 75.2429 283.857C77.8322 285.237 80.4555 286.56 83.1149 287.8C85.007 288.681 86.9865 289.375 88.9125 290.187C89.1817 290.301 89.3669 290.614 89.5913 290.835H67.2571C68.6734 287.709 70.0897 284.582 71.5054 281.455H71.506Z" fill="#583320"/>
<path d="M71.5059 281.455C70.0896 284.582 68.6739 287.709 67.2576 290.835H65.7487C66.4741 289.08 67.1713 287.313 67.9306 285.573C69.1301 282.823 70.3698 280.093 71.5951 277.355C71.7182 277.08 71.8505 276.809 71.9949 276.544C72.5794 275.472 72.5915 275.469 73.8801 275.742C73.2847 277.145 72.6864 278.547 72.0967 279.952C71.8885 280.449 71.7027 280.954 71.5059 281.455Z" fill="#48291A"/>
<path d="M153.274 290.836C153.274 288.375 153.312 285.914 153.262 283.455C153.213 281.057 153.066 278.661 152.976 276.263C152.951 275.609 152.93 274.922 154.093 274.893C154.224 275.775 154.442 276.639 154.463 277.508C154.516 279.716 154.458 281.927 154.493 284.135C154.507 284.978 154.666 285.817 154.732 286.661C154.767 287.109 154.774 287.563 154.741 288.011C154.673 288.954 154.569 289.894 154.48 290.836H153.273H153.274Z" fill="#48291A"/>
<path d="M82.0213 79.2557C84.5462 75.5527 87.7769 72.5745 91.4856 70.0997C97.6801 65.9658 104.507 63.9415 111.957 64.0013C118.702 64.0554 125.246 65.1714 131.543 67.6341C138.864 70.4966 144.777 75.15 149.276 81.5913C150.048 82.6975 150.743 83.8584 151.475 84.9945C151.276 85.1792 150.927 85.3455 150.902 85.5508C150.747 86.8371 150.552 88.1349 150.578 89.4241C150.662 93.6299 150.303 97.8403 150.82 102.046C150.969 103.258 150.63 104.525 150.565 105.77C150.444 108.066 150.398 110.366 150.249 112.66C150.099 114.948 149.884 117.232 149.653 119.513C149.367 122.338 149.112 125.17 148.705 127.979C148.178 131.626 147.554 135.26 146.874 138.881C146.749 139.544 146.9 140.461 146.008 140.838C145.751 139.62 145.544 138.389 145.23 137.185C143.699 131.315 142.207 125.434 140.562 119.595C139.677 116.454 138.375 113.453 136.677 110.645C136.577 110.161 136.571 109.631 136.361 109.201C135.635 107.72 134.847 106.268 134.065 104.814C132.2 101.347 129.946 98.1624 127.053 95.4754C125.063 93.627 122.855 92.0847 120.351 90.9716C117.63 89.7624 114.798 89.4166 111.848 89.4696C109.235 89.5162 106.784 90.1265 104.435 91.1706C98.1553 93.9641 93.4922 98.6629 89.4624 104.076C89.2231 104.397 89.2266 104.898 89.1167 105.316C85.4499 109.863 82.1479 114.665 79.2485 119.731C77.3801 122.995 75.6727 126.352 73.8934 129.667C73.7996 129.497 73.6356 129.333 73.623 129.157C73.4987 127.413 73.3031 125.667 73.3175 123.922C73.3359 121.624 73.4193 119.316 73.6707 117.033C73.9152 114.81 74.4496 112.619 74.7804 110.403C75.4006 106.247 76.4165 102.182 77.5302 98.1411C78.6324 94.1402 79.8537 90.1725 80.9933 86.1813C81.5421 84.2599 82.0213 82.3184 82.5362 80.3872C82.676 79.8637 82.7749 79.3696 82.0225 79.2562L82.0213 79.2557Z" fill="#724D40"/>
<path d="M67.8541 206.94C67.0102 206.341 66.1254 205.792 65.3327 205.132C64.2322 204.215 63.707 204.35 63.0799 205.643C61.6165 208.66 60.1167 211.662 58.5739 214.64C57.1691 217.353 55.728 220.048 54.23 222.71C52.6601 225.5 51.0332 228.259 49.3776 230.999C46.843 235.195 44.2635 239.365 41.7007 243.544C41.283 244.225 40.8493 244.897 40.4224 245.572C40.2142 245.876 40.0065 246.18 39.7983 246.484C38.8681 245.021 37.8268 243.617 37.0301 242.085C34.905 238 32.9043 233.851 30.8103 229.75C30.2511 228.654 29.5349 227.638 28.8912 226.586C27.6463 223.363 26.3249 220.166 25.1876 216.905C24.5934 215.201 25.0605 213.416 25.4626 211.709C27.7757 201.887 33.0389 193.884 40.6313 187.35C44.9038 183.673 49.4513 180.392 54.5602 177.948C54.6695 178.161 54.8162 178.364 54.8818 178.59C55.6348 181.173 56.3234 183.775 57.1299 186.342C58.6412 191.149 60.9819 195.57 63.6391 199.825C64.9616 201.943 66.3918 203.994 67.7793 206.071C67.9697 206.356 68.3045 206.609 67.8541 206.941V206.94Z" fill="#714C40"/>
<path d="M59.9834 130.562C60.3303 129.047 60.6012 127.511 61.0373 126.023C62.4778 121.11 63.7836 116.146 65.4991 111.329C68.2281 103.664 71.3864 96.1651 75.5237 89.1226C75.648 88.9115 75.8205 88.7292 75.9707 88.5336C75.9097 89.0248 75.904 89.5305 75.7785 90.0051C74.2944 95.6128 72.698 101.193 71.3329 106.829C70.5833 109.924 69.977 113.095 69.7474 116.263C69.5426 119.091 69.5311 121.959 69.9085 124.826C70.2514 127.432 70.9095 129.917 71.7367 132.386C71.9657 133.069 72.2861 133.566 73.0771 133.575C73.1254 133.868 73.2123 134.16 73.2169 134.454C73.2882 139.045 73.9469 143.555 75.1003 147.992C76.3578 152.831 78.1717 157.439 80.8869 161.663C80.9444 162.055 81.0641 162.448 81.0492 162.837C80.9807 164.638 80.8328 166.435 80.792 168.236C80.7178 171.523 80.1983 174.708 78.8643 177.739C76.2675 183.64 74.8639 189.78 74.9916 196.269C75.0163 197.522 74.6079 198.867 74.0838 200.026C73.2848 201.795 72.2102 203.439 71.2529 205.136C70.9313 204.936 70.5137 204.806 70.3049 204.523C69.3574 203.236 68.3656 201.965 67.5821 200.58C66.1779 198.099 64.8427 195.573 63.6053 193.004C61.8335 189.327 60.9125 185.365 60.1266 181.393C59.4306 177.873 58.7817 174.33 58.8024 170.713C58.8041 170.365 58.7264 170.016 58.7155 169.668C58.6551 167.719 58.5101 165.766 58.5769 163.821C58.6448 161.831 58.9347 159.851 59.1055 157.864C59.2338 156.372 59.3161 154.875 59.4386 153.382C59.6216 151.146 59.8747 148.914 60.0018 146.674C60.1807 143.525 59.808 140.368 60.282 137.212C60.5984 135.105 60.6047 132.952 60.7571 130.717C60.5443 130.675 60.2641 130.618 59.984 130.563L59.9834 130.562Z" fill="#734D40"/>
<path d="M59.9833 130.562C60.2634 130.618 60.5436 130.674 60.7564 130.717C60.604 132.951 60.5977 135.104 60.2813 137.211C59.8073 140.367 60.18 143.525 60.0011 146.674C59.874 148.913 59.6209 151.145 59.4379 153.382C59.316 154.875 59.2331 156.371 59.1048 157.864C58.934 159.85 58.6441 161.831 58.5762 163.82C58.51 165.765 58.655 167.718 58.7148 169.667C58.7257 170.016 58.804 170.364 58.8017 170.712C58.781 174.33 59.4299 177.873 60.1259 181.392C60.9118 185.364 61.8328 189.327 63.6046 193.003C64.8426 195.572 66.1778 198.098 67.5814 200.58C68.3649 201.965 69.3567 203.236 70.3042 204.522C70.513 204.806 70.9306 204.935 71.2516 205.135C70.8938 205.999 70.536 206.863 70.1782 207.727L70.1851 207.762C70.1241 207.892 70.0626 208.021 70.001 208.151L69.8698 208.124C68.9747 208.109 68.3949 207.557 67.8535 206.939C68.304 206.608 67.9692 206.355 67.7787 206.07C66.3918 203.993 64.9611 201.942 63.6385 199.824C60.9814 195.569 58.6406 191.148 57.1294 186.341C56.3229 183.775 55.6337 181.172 54.8812 178.589C54.8151 178.363 54.669 178.16 54.5597 177.947C53.9332 173.839 54.1691 169.725 54.4711 165.611C55.0791 157.334 56.2371 149.127 57.6517 140.956C58.2 137.79 58.8978 134.651 59.5495 131.504C59.618 131.174 59.8349 130.874 59.9827 130.561L59.9833 130.562Z" fill="#68453A"/>
<path d="M167.81 157.042C166.993 158.918 166.128 160.776 165.367 162.674C163.312 167.801 160.897 172.755 158.149 177.54C156.005 181.275 153.883 185.033 151.515 188.626C149.733 191.33 147.678 193.875 145.564 196.335C143.084 199.221 140.518 202.053 137.788 204.7C134.927 207.473 131.894 210.084 128.484 212.323C128.16 211.784 128.584 211.556 128.83 211.318C131.279 208.952 133.835 206.687 136.167 204.212C138.151 202.108 139.984 199.839 141.696 197.506C143.649 194.844 145.437 192.058 147.214 189.272C148.155 187.796 148.955 186.226 149.757 184.665C151.154 181.944 152.567 179.228 153.853 176.454C155.18 173.592 156.449 170.696 157.592 167.755C159.588 162.621 161.478 157.445 163.385 152.276C163.8 151.151 164.049 149.965 164.454 148.835C164.877 147.656 165.447 147.412 166.611 147.771C166.676 148.718 166.747 149.663 166.804 150.61C166.874 151.761 166.956 152.912 166.988 154.064C167.017 155.131 167.374 156.094 167.811 157.041L167.81 157.042Z" fill="#684439"/>
<path d="M73.077 133.575C72.286 133.566 71.9656 133.069 71.7367 132.386C70.9089 129.917 70.2513 127.432 69.9085 124.825C69.5311 121.959 69.5426 119.091 69.7474 116.263C69.9769 113.095 70.5833 109.924 71.3328 106.829C72.6979 101.193 74.2943 95.6128 75.7785 90.0051C75.9039 89.5311 75.9091 89.0248 75.9706 88.5336C77.7033 85.2551 79.6552 82.1199 82.0213 79.2551C82.7738 79.3684 82.6748 79.8625 82.535 80.386C82.0202 82.3172 81.541 84.2587 80.9922 86.1801C79.8525 90.1708 78.6318 94.139 77.529 98.14C76.4159 102.18 75.3994 106.246 74.7793 110.402C74.4485 112.618 73.9146 114.808 73.6696 117.032C73.4182 119.314 73.3348 121.623 73.3164 123.921C73.302 125.665 73.4976 127.412 73.6218 129.156C73.6345 129.331 73.7984 129.496 73.8922 129.666C73.6247 130.97 72.733 132.144 73.0765 133.575H73.077Z" fill="#684539"/>
<path d="M146.008 140.838C146.901 140.461 146.75 139.544 146.874 138.881C147.554 135.26 148.178 131.625 148.706 127.979C149.113 125.17 149.368 122.339 149.654 119.513C149.885 117.232 150.1 114.948 150.249 112.66C150.399 110.366 150.444 108.066 150.565 105.77C150.631 104.525 150.97 103.258 150.821 102.046C150.303 97.8408 150.664 93.6299 150.578 89.4241C150.552 88.1343 150.747 86.8371 150.903 85.5508C150.928 85.3454 151.276 85.1786 151.475 84.9945C152.81 87.4595 154.144 89.9251 155.479 92.3902C155.249 93.4043 154.975 94.4116 154.801 95.435C154.643 96.3653 154.564 97.3121 154.501 98.255C154.376 100.148 154.316 102.045 154.171 103.936C154.029 105.771 153.817 107.601 153.63 109.432C153.518 110.523 153.402 111.613 153.276 112.702C152.989 115.172 152.705 117.644 152.401 120.113C152.103 122.533 151.824 124.957 151.457 127.368C151.097 129.729 150.679 132.084 150.21 134.427C149.555 137.699 148.853 140.962 148.115 144.217C147.943 144.976 147.987 146.047 146.7 145.961C146.47 144.253 146.239 142.545 146.008 140.837V140.838Z" fill="#684539"/>
<path d="M171.752 187.8C170.117 190.857 168.177 193.714 165.857 196.283C163.675 198.7 161.469 201.112 159.087 203.327C156.311 205.91 153.313 208.234 150.146 210.355C147.181 212.34 144.143 214.165 140.913 215.663C139.554 216.293 138.131 216.788 136.724 217.309C136.398 217.429 136.018 217.402 135.663 217.442C135.625 217.34 135.587 217.237 135.549 217.135C136.617 216.355 137.695 215.591 138.749 214.795C141.935 212.385 145.095 209.94 148.299 207.554C150.964 205.567 153.307 203.233 155.569 200.825C157.277 199.008 158.814 197.03 160.411 195.109C161.752 193.498 163.094 191.886 164.391 190.239C165.813 188.434 167.212 186.61 168.557 184.748C168.921 184.245 169.261 183.927 169.887 183.992C170.509 185.261 171.131 186.53 171.753 187.8L171.752 187.8Z" fill="#684439"/>
<path d="M146.008 140.838C146.239 142.546 146.47 144.254 146.7 145.962C146.383 146.525 146.012 147.065 145.755 147.656C143.767 152.218 141.574 156.673 138.75 160.785C135.561 165.427 131.684 169.387 126.941 172.463C126.48 172.763 125.988 173.016 125.51 173.29C125.593 172.649 125.793 171.997 125.736 171.369C125.583 169.692 123.794 168.577 121.883 168.976C120.22 169.323 118.569 169.739 116.933 170.197C112.21 171.521 107.51 172.929 102.775 174.204C100.61 174.788 98.3825 175.138 96.1838 175.594C94.4264 174.595 92.6707 173.592 90.9103 172.599C90.4904 172.362 90.0532 172.155 89.624 171.934C89.6493 169.329 89.4831 166.737 88.9797 164.179C88.4695 161.587 87.0693 159.687 84.499 158.823C83.1695 158.376 82.1536 158.896 81.5749 160.186C81.3528 160.682 81.117 161.172 80.8869 161.664C78.1716 157.44 76.3578 152.831 75.1002 147.993C73.9468 143.556 73.2887 139.046 73.2168 134.455C73.2122 134.162 73.1253 133.869 73.077 133.576C72.7342 132.145 73.6258 130.971 73.8933 129.667C75.6726 126.352 77.38 122.996 79.2485 119.731C82.1479 114.665 85.4499 109.863 89.1167 105.316C91.1571 105.784 93.1867 106.307 95.2404 106.709C100.143 107.669 105.045 108.639 109.97 109.472C113.069 109.996 116.205 110.305 119.331 110.663C120.87 110.839 122.419 110.979 123.967 111.009C126.811 111.063 129.658 111.063 132.502 111.006C133.896 110.978 135.286 110.771 136.678 110.646C138.376 113.454 139.678 116.455 140.563 119.596C142.208 125.434 143.7 131.316 145.231 137.186C145.545 138.39 145.752 139.621 146.009 140.839L146.008 140.838ZM137.59 122.861C137.432 122.55 137.388 122.407 137.3 122.301C137.143 122.111 136.985 121.905 136.783 121.771C132.784 119.094 128.398 118.32 123.704 119.198C123.311 119.272 122.765 119.585 122.655 119.91C122.413 120.628 122.082 121.41 122.498 122.301C127.55 120.745 132.514 121.529 137.59 122.861ZM84.1947 114.85C90.2125 113.746 96.1809 113.818 102.196 115.446C101.764 113.527 100.455 112.865 98.9405 112.491C96.6095 111.914 94.2624 112.076 91.9228 112.46C89.2587 112.897 86.6597 113.562 84.1947 114.85Z" fill="#EAB9A5"/>
<path d="M80.8869 161.663C81.1165 161.171 81.3523 160.681 81.5749 160.186C82.1537 158.896 83.169 158.375 84.499 158.822C87.0693 159.686 88.4695 161.586 88.9798 164.178C89.4832 166.737 89.6494 169.329 89.6241 171.934C89.723 173.124 89.8243 174.314 89.9204 175.504C89.9756 176.188 90.2931 176.694 91.0157 176.671C92.7955 176.615 94.5651 176.449 96.1845 175.594C98.3831 175.138 100.611 174.788 102.775 174.204C107.511 172.929 112.21 171.521 116.933 170.197C118.569 169.739 120.221 169.324 121.884 168.976C123.795 168.578 125.584 169.692 125.737 171.369C125.794 171.997 125.594 172.649 125.511 173.29C123.062 176.691 119.361 178.191 115.691 179.72C114.533 180.202 113.319 180.549 112.136 180.969C111.673 181.134 111.222 181.333 110.881 181.47V186.715C111.142 186.866 111.616 187.129 112.079 187.411C114.238 188.726 114.615 190.524 113.179 192.609C113.095 192.731 113.023 192.861 112.928 193.013C112.984 193.14 113.013 193.299 113.105 193.401C115.035 195.564 114.546 197.79 112.877 199.789C110.782 202.299 108.033 203.828 104.975 204.84C102.877 205.534 100.768 206.192 98.661 206.859C96.9265 207.408 95.6351 208.455 95.0368 210.205C94.3568 212.195 93.7407 214.208 93.0964 216.21C92.8318 216.234 92.5677 216.259 92.3037 216.283C92.3825 215.953 92.6385 215.457 92.5108 215.321C91.7112 214.469 92.1921 213.602 92.4406 212.787C92.761 211.736 93.2489 210.737 93.6343 209.704C94.515 207.342 96.3024 206.019 98.6207 205.282C100.961 204.539 103.327 203.864 105.628 203.014C108.193 202.066 110.552 200.737 112.16 198.409C113.247 196.835 113.139 195.544 111.878 194.05C111.143 193.179 111.133 192.997 111.79 192.113C111.88 191.993 112 191.894 112.083 191.769C112.916 190.534 112.672 189.35 111.395 188.568C110.926 188.28 110.405 188.077 109.916 187.82C108.8 187.235 108.733 187.142 109.281 185.968C109.897 184.651 109.926 183.39 109.314 182.062C108.742 180.822 108.879 180.565 110.166 180.098C111.815 179.501 113.47 178.919 115.126 178.337C117.504 177.502 119.739 176.371 121.814 174.949C122.504 174.476 123.142 173.859 123.632 173.183C124.048 172.609 124.612 171.886 124.121 171.114C123.628 170.34 122.756 170.378 121.939 170.428C121.79 170.437 121.638 170.457 121.494 170.495C120.526 170.749 119.558 171.003 118.593 171.27C112.033 173.079 105.491 174.96 98.9043 176.668C96.4514 177.303 93.9697 177.98 91.3838 177.957C89.0385 177.937 88.7721 177.723 88.4212 175.396C88.3913 175.198 88.4016 174.995 88.3884 174.794C88.1848 171.7 88.0352 168.601 87.7545 165.514C87.5813 163.608 86.7967 161.948 85.2083 160.746C83.8593 159.726 82.9228 160.031 82.6662 161.669C82.489 162.801 82.4148 163.953 82.3504 165.099C82.2238 167.349 82.1376 169.602 82.0277 171.853C82.0179 172.051 81.9471 172.245 81.9201 172.443C81.5709 175.055 80.5579 177.459 79.5811 179.873C77.4555 185.125 76.206 190.554 76.3216 196.249C76.3475 197.528 76.1599 198.756 75.6014 199.899C74.4784 202.195 73.3187 204.474 72.1618 206.754C71.5912 207.879 71.5785 207.872 70.1777 207.727C70.5356 206.863 70.8934 205.999 71.2512 205.135C72.209 203.438 73.283 201.794 74.0827 200.025C74.6067 198.865 75.0152 197.52 74.9904 196.268C74.8633 189.779 76.2664 183.64 78.8631 177.738C80.1972 174.706 80.7172 171.522 80.7908 168.235C80.8311 166.434 80.9795 164.636 81.048 162.836C81.063 162.447 80.9433 162.053 80.8858 161.662L80.8869 161.663Z" fill="#E99177"/>
<path d="M126.095 213.452C126.586 213.082 127.077 212.712 127.568 212.342C127.656 212.449 127.745 212.555 127.833 212.661C127.626 213.341 126.897 213.446 126.401 213.807C126.3 213.689 126.197 213.57 126.095 213.452H126.095Z" fill="#684439"/>
<path d="M70.1783 207.728C71.5796 207.873 71.5917 207.88 72.1624 206.755C73.3193 204.475 74.4784 202.197 75.6019 199.9C76.1605 198.757 76.348 197.53 76.3222 196.25C76.2071 190.555 77.4566 185.126 79.5816 179.874C80.5584 177.46 81.5715 175.056 81.9207 172.444C81.9471 172.246 82.0185 172.052 82.0282 171.854C82.1381 169.603 82.2238 167.351 82.351 165.101C82.4154 163.954 82.4896 162.802 82.6668 161.67C82.9234 160.032 83.8599 159.728 85.2089 160.747C86.7978 161.949 87.5819 163.609 87.755 165.515C88.0358 168.602 88.1848 171.702 88.389 174.796C88.4022 174.996 88.3918 175.199 88.4218 175.397C88.7721 177.724 89.039 177.938 91.3844 177.958C93.9702 177.981 96.4519 177.304 98.9049 176.669C105.492 174.961 112.034 173.081 118.594 171.271C119.559 171.005 120.526 170.751 121.494 170.496C121.639 170.458 121.79 170.438 121.94 170.429C122.757 170.379 123.629 170.341 124.122 171.115C124.613 171.887 124.049 172.61 123.632 173.184C123.141 173.86 122.504 174.477 121.814 174.95C119.74 176.372 117.505 177.503 115.126 178.338C113.471 178.919 111.816 179.501 110.166 180.1C108.88 180.566 108.743 180.822 109.314 182.063C109.926 183.391 109.898 184.652 109.282 185.97C108.733 187.143 108.801 187.236 109.917 187.821C110.406 188.078 110.926 188.282 111.396 188.569C112.673 189.351 112.917 190.535 112.084 191.771C112 191.895 111.881 191.994 111.791 192.115C111.134 192.997 111.144 193.18 111.879 194.051C113.139 195.545 113.247 196.836 112.16 198.41C110.552 200.738 108.193 202.067 105.629 203.015C103.328 203.866 100.961 204.54 98.6213 205.284C96.3029 206.021 94.5156 207.343 93.6348 209.705C93.25 210.738 92.7616 211.737 92.4412 212.788C92.1926 213.603 91.7117 214.47 92.5113 215.323C92.6391 215.458 92.3831 215.955 92.3042 216.284C86.0908 216.089 80.3254 214.226 74.7919 211.536C73.4475 210.882 72.1423 210.136 70.8744 209.344C70.4515 209.08 70.2007 208.539 69.8711 208.125L70.0023 208.152C70.0638 208.022 70.1248 207.893 70.1863 207.763L70.1794 207.728L70.1783 207.728Z" fill="#EAB9A5"/>
<path d="M39.7983 246.484C40.006 246.181 40.2142 245.876 40.4225 245.573C41.6536 245.837 41.7738 246.001 41.3383 246.977C40.7262 248.349 40.1078 249.719 39.452 251.069C37.3949 255.309 35.3061 259.534 33.2546 263.776C31.9896 266.392 30.7494 269.02 29.5459 271.664C29.2606 272.291 28.9137 272.52 28.0767 272.262C28.1106 271.839 28.1267 271.372 28.194 270.913C28.2216 270.723 28.3562 270.549 28.4443 270.369C30.6228 265.909 32.8209 261.459 34.9741 256.987C36.5383 253.738 38.0449 250.462 39.5711 247.194C39.6752 246.971 39.7235 246.721 39.7977 246.484H39.7983Z" fill="#48291A"/>
<path d="M136.678 110.645C135.285 110.771 133.895 110.977 132.501 111.005C129.657 111.062 126.811 111.062 123.967 111.008C122.419 110.978 120.869 110.838 119.33 110.662C116.205 110.304 113.068 109.995 109.969 109.471C105.044 108.638 100.142 107.668 95.2399 106.708C93.1862 106.306 91.1567 105.782 89.1162 105.315C89.2261 104.898 89.2232 104.396 89.4619 104.075C93.4917 98.6629 98.1548 93.9636 104.435 91.1701C106.783 90.1254 109.235 89.5156 111.847 89.469C114.798 89.4161 117.63 89.7618 120.35 90.971C122.855 92.0842 125.062 93.6265 127.053 95.4748C129.946 98.1619 132.2 101.347 134.065 104.814C134.847 106.267 135.634 107.719 136.36 109.201C136.571 109.63 136.577 110.16 136.676 110.644L136.678 110.645Z" fill="#A28277"/>
<path d="M137.59 122.861C132.514 121.529 127.549 120.745 122.497 122.301C122.082 121.41 122.413 120.628 122.655 119.91C122.765 119.585 123.31 119.272 123.703 119.198C128.397 118.32 132.783 119.093 136.783 121.771C136.984 121.905 137.142 122.111 137.299 122.301C137.387 122.407 137.432 122.55 137.59 122.861H137.59Z" fill="#2E1F1D"/>
<path d="M84.1945 114.85C86.6596 113.562 89.2581 112.897 91.9221 112.46C94.2617 112.076 96.6088 111.914 98.9398 112.491C100.454 112.865 101.763 113.527 102.195 115.446C96.1803 113.818 90.2118 113.746 84.194 114.85H84.1945Z" fill="#322320"/>
<path d="M96.1833 175.594C94.5645 176.449 92.795 176.615 91.0145 176.67C90.292 176.693 89.9744 176.187 89.9192 175.503C89.8225 174.314 89.7219 173.124 89.6229 171.934C90.0526 172.154 90.4899 172.361 90.9098 172.598C92.6707 173.592 94.4258 174.594 96.1833 175.594Z" fill="#7A5245"/>
<path d="M134.032 128.309C134.02 128.183 134.008 128.056 133.995 127.93C134.121 127.968 134.247 128.006 134.373 128.044C134.26 128.132 134.146 128.221 134.032 128.309Z" fill="#EAB9A5"/>
</g>
</g>
<defs>
<filter id="filter0_d_112_140" x="8.36328" y="64" width="182.637" height="226.837" filterUnits="userSpaceOnUse" color-interpolation-filters="sRGB">
<feFlood flood-opacity="0" result="BackgroundImageFix"/>
<feColorMatrix in="SourceAlpha" type="matrix" values="0 0 0 0 0 0 0 0 0 0 0 0 0 0 0 0 0 0 127 0" result="hardAlpha"/>
<feOffset dx="-10"/>
<feComposite in2="hardAlpha" operator="out"/>
<feColorMatrix type="matrix" values="0 0 0 0 0 0 0 0 0 0 0 0 0 0 0 0 0 0 0.06 0"/>
<feBlend mode="normal" in2="BackgroundImageFix" result="effect1_dropShadow_112_140"/>
<feBlend mode="normal" in="SourceGraphic" in2="effect1_dropShadow_112_140" result="shape"/>
</filter>
<clipPath id="clip0_112_140">
<rect width="210" height="290" fill="white"/>
</clipPath>
</defs>
</svg>
